<?xml version="1.0" encoding="UTF-8"?>
<svg width="482px" height="76px" viewBox="0 0 482 76" version="1.1" xmlns="http://www.w3.org/2000/svg" xmlns:xlink="http://www.w3.org/1999/xlink">
    <!-- Generator: Sketch 51.2 (57519) - http://www.bohemiancoding.com/sketch -->
    <title>logo-beta</title>
    <desc>Created with Sketch.</desc>
    <defs>
        <polygon id="path-1" points="0 0.0435851064 212.768324 0.0435851064 212.768324 75.5904059 0 75.5904059"></polygon>
        <polygon id="path-3" points="0.400225348 0.043745937 276.534168 0.043745937 276.534168 75.5904059 0.400225348 75.5904059"></polygon>
        <polygon id="path-5" points="0 75.5904059 482 75.5904059 482 0 0 0"></polygon>
    </defs>
    <g id="logo-beta" stroke="none" stroke-width="1" fill="none" fill-rule="evenodd">
        <g id="Group-50">
            <path d="M29.3468635,18.2077185 C29.3468635,16.8713702 28.2807001,15.1180812 25.806787,15.1180812 L22.2324723,15.1180812 L22.2324723,21.3431734 L24.9364983,21.3431734 C28.650951,21.3431734 29.3468635,19.5898844 29.3468635,18.2077185" id="Fill-1" fill="#231F20"></path>
            <path d="M75.9210377,43.5756458 L72.0332103,43.5756458 L72.0332103,49.800738 L75.9210377,49.800738 C78.1386712,49.800738 79.1476015,48.5771738 79.1476015,46.6890299 C79.1476015,44.7966958 78.1386712,43.5756458 75.9210377,43.5756458" id="Fill-3" fill="#231F20"></path>
            <path d="M49.8180492,31.1254613 C53.7099286,31.1254613 55.1365314,28.9110046 55.1365314,23.4315607 C55.1365314,17.9610266 53.7414036,16.0073801 49.8180492,16.0073801 C45.893908,16.0073801 44.4649446,17.9610266 44.4649446,23.4315607 C44.4649446,28.9110046 45.9285305,31.1254613 49.8180492,31.1254613" id="Fill-5" fill="#231F20"></path>
            <path d="M190.640595,43.5756458 L186.752768,43.5756458 L186.752768,49.800738 L190.640595,49.800738 C192.859777,49.800738 193.867159,48.5771738 193.867159,46.6890299 C193.867159,44.7966958 192.859777,43.5756458 190.640595,43.5756458" id="Fill-7" fill="#231F20"></path>
            <g id="Group-11">
                <mask id="mask-2" fill="white">
                    <use xlink:href="#path-1"></use>
                </mask>
                <g id="Clip-10"></g>
                <path d="M194.082174,62.8897702 L188.901018,54.6914278 L186.637031,54.6914278 L186.637031,62.8897702 L180.206695,62.8897702 L180.206695,38.1001379 L191.368772,38.1001379 C196.706177,38.1001379 200.388478,41.1253624 200.388478,46.5397263 C200.388478,50.2911012 198.486117,52.8804747 195.456997,54.0111142 L201.279254,62.8897702 L194.082174,62.8897702 Z M177.790487,43.6721158 L166.430281,43.6721158 L166.430281,47.5553718 L176.819977,47.5553718 L176.819977,52.9994894 L166.430281,52.9994894 L166.430281,57.2775847 L177.790487,57.2775847 L177.790487,62.8897702 L160.043437,62.8897702 L160.043437,38.1001379 L177.790487,38.1001379 L177.790487,43.6721158 Z M158.193427,43.6721158 L150.508274,43.6721158 L150.508274,62.8897702 L143.999008,62.8897702 L143.999008,43.6721158 L136.358152,43.6721158 L136.358152,38.1001379 L158.193427,38.1001379 L158.193427,43.6721158 Z M134.552439,62.8897702 L128.042369,62.8897702 L128.042369,53.0774922 L118.458076,53.0774922 L118.458076,62.8897702 L111.9472,62.8897702 L111.9472,38.1001379 L118.458076,38.1001379 L118.458076,47.5022977 L128.042369,47.5022977 L128.042369,38.1001379 L134.552439,38.1001379 L134.552439,62.8897702 Z M99.3442572,57.5944211 C101.609855,57.5944211 102.943602,56.3897995 103.590341,54.529793 L110.059336,54.529793 C109.171782,59.6216914 105.52975,63.2982801 99.3442572,63.2982801 C92.3904097,63.2982801 87.4146314,58.0069517 87.4146314,50.4969644 C87.4146314,42.9901938 92.3904097,37.6948446 99.3442572,37.6948446 C105.52975,37.6948446 109.171782,41.3722375 110.059336,46.417495 L103.590341,46.417495 C102.943602,44.5993045 101.609855,43.3906621 99.3442572,43.3906621 C95.9092144,43.3906621 93.9657775,46.417495 93.9657775,50.4969644 C93.9657775,54.529793 95.9092144,57.5944211 99.3442572,57.5944211 Z M79.8663966,62.8897702 L74.6892676,54.6914278 L72.4268912,54.6914278 L72.4268912,62.8897702 L65.9981663,62.8897702 L65.9981663,38.1001379 L77.1562163,38.1001379 C82.492815,38.1001379 86.1710895,41.1253624 86.1710895,46.5397263 C86.1710895,50.2911012 84.2735606,52.8804747 81.2396083,54.0111142 L87.0634758,62.8897702 L79.8663966,62.8897702 Z M76.6335099,10.5972924 C79.395236,10.5972924 82.5894634,11.9265577 83.5776926,14.5738303 L83.5470873,11.313793 L88.3754769,11.313793 L88.3754769,21.3319342 L83.474601,21.3319342 C83.3054664,17.8000931 80.7877774,16.1379083 78.0985375,16.1379083 C75.0726393,16.1379083 71.9074064,18.2045822 71.9074064,23.1662078 C71.9074064,28.13105 75.3102331,30.3987621 78.5431198,30.3987621 C80.9271121,30.3987621 83.2047911,29.1812741 84.2920848,26.0555304 L88.7830107,28.5355391 C88.0331807,32.6423497 84.0206641,36.1034253 78.3393529,36.1034253 C69.5959005,36.1034253 64.7642892,30.8402423 64.7642892,23.2361691 C64.7642892,14.441145 71.1978466,10.5972924 76.6335099,10.5972924 Z M63.5795418,43.6721158 L52.2153087,43.6721158 L52.2153087,47.5553718 L62.6114476,47.5553718 L62.6114476,52.9994894 L52.2153087,52.9994894 L52.2153087,57.2775847 L63.5795418,57.2775847 L63.5795418,62.8897702 L45.8252431,62.8897702 L45.8252431,38.1001379 L63.5795418,38.1001379 L63.5795418,43.6721158 Z M37.9927011,62.8897702 L32.0536611,62.8897702 L28.2110845,48.3506794 L24.3266269,62.8897702 L18.3843653,62.8897702 L11.8726839,38.1001379 L18.5051757,38.1001379 L21.9829049,52.6738073 L25.8222599,38.1001379 L30.7561572,38.1001379 L34.5600745,52.6738073 L37.9927011,38.1001379 L44.5470689,38.1001379 L37.9927011,62.8897702 Z M11.6391171,31.4031496 L15.5058558,31.4031496 L15.5058558,15.4262327 L11.6391171,15.4262327 L11.6391171,11.3363093 L26.8716997,11.3363093 C32.7543615,11.4456741 35.8326109,14.5207561 35.8326109,17.8579921 C35.8326109,20.9676528 33.6676883,23.42997 29.2661621,23.5706969 L29.2661621,23.9084412 C32.5505946,23.9084412 33.2206897,25.3728043 34.0067628,27.9235784 C34.53108,29.6348166 34.8733762,30.738919 35.2180886,31.846238 C35.558774,32.9503404 36.5872733,33.6716659 38.9253575,33.1835449 C39.3586642,33.0910672 38.0007552,36.0165768 33.599229,36.0165768 C30.8930757,36.0165768 29.6261771,34.7395814 28.7595638,32.1059795 C27.4491735,28.1133586 26.8000188,25.9670736 24.5698586,25.9670736 L22.0706938,25.9670736 L22.0706938,31.4031496 L25.170689,31.4031496 L25.170689,35.4520612 L11.6391171,35.4520612 L11.6391171,31.4031496 Z M42.0511257,13.0781052 C44.1951079,11.5164396 46.8843477,10.5972924 49.9126621,10.5972924 C57.5366048,10.5972924 62.9787113,16.1692703 62.9787113,23.3021097 C62.9787113,30.4735484 57.5366048,36.1034253 49.9126621,36.1034253 C42.3225464,36.1034253 36.9464829,30.4735484 36.9464829,23.3021097 C36.9464829,19.053768 38.8866982,15.3868292 42.0511257,13.0781052 Z M90.1876331,31.3629419 L93.8022807,31.3629419 L93.8022807,15.4302535 L90.1876331,15.4302535 L90.1876331,11.2840393 L103.206969,11.2840393 L103.206969,15.4302535 L100.369535,15.4302535 L100.369535,22.8927957 L108.821432,15.4302535 L105.155238,15.4302535 L105.155238,11.2840393 L117.411052,11.2840393 L117.411052,15.4302535 L114.925579,15.4302535 L107.514263,21.6399249 L116.496115,31.3629419 L118.468546,31.3629419 L118.468546,35.4311532 L105.324373,35.4311532 L105.324373,31.3629419 L108.479941,31.3629419 L103.091796,25.3430506 L100.369535,27.6517746 L100.369535,31.3629419 L103.373687,31.3629419 L103.373687,35.4311532 L90.1876331,35.4311532 L90.1876331,31.3629419 Z M-0.00056378194,75.5905667 L212.768324,75.5905667 L212.768324,0.0435851064 L-0.00056378194,0.0435851064 L-0.00056378194,75.5905667 Z" id="Fill-9" fill="#231F20" mask="url(#mask-2)"></path>
            </g>
            <path d="M136.546955,15.947185 C134.484132,15.947185 133.413146,17.3708927 133.295247,19.2177135 L128.059041,19.2177135 C128.53476,14.8306143 131.708143,11.5608856 136.50738,11.5608856 C141.623214,11.5608856 144.677873,14.3307169 144.677873,18.60184 C144.677873,21.5652315 142.338029,23.8743574 139.838237,26.4130362 L135.158548,31.3000328 L144.95572,31.3000328 L144.95572,35.5719557 L128.09944,35.5719557 L128.09944,32.3774116 L135.833788,24.4894312 C137.974936,22.2194972 139.640364,20.564637 139.640364,18.7946004 C139.640364,17.1397402 138.451479,15.947185 136.546955,15.947185" id="Fill-12" fill="#E94E1C"></path>
            <path d="M151.556926,24.0110701 C151.556926,28.4882381 152.86985,31.9840866 156.072357,31.9840866 C159.235564,31.9840866 160.586184,28.4882381 160.586184,24.0110701 C160.586184,19.5339021 159.235564,16.0380536 156.072357,16.0380536 C152.86985,16.0380536 151.556926,19.5339021 151.556926,24.0110701 M146.734317,24.0110701 C146.734317,16.6658695 150.51589,11.5608856 156.072357,11.5608856 C161.628021,11.5608856 165.409594,16.6658695 165.409594,24.0110701 C165.409594,31.3562708 161.628021,36.4612546 156.072357,36.4612546 C150.51589,36.4612546 146.734317,31.3562708 146.734317,24.0110701" id="Fill-14" fill="#E94E1C"></path>
            <polygon id="Fill-16" fill="#E94E1C" points="177.859779 35.5719557 172.882795 35.5719557 172.882795 17.2704139 167.188192 20.0463306 167.188192 15.1586038 174.635044 11.5608856 177.859779 11.5608856"></polygon>
            <path d="M189.599925,15.6844148 C187.364989,15.6844148 185.77502,17.3343163 185.77502,19.7295716 C185.77502,22.2432019 187.364989,23.8931034 189.599925,23.8931034 C191.912036,23.8931034 193.464205,22.2432019 193.464205,19.7295716 C193.464205,17.3343163 191.912036,15.6844148 189.599925,15.6844148 Z M186.303435,29.9808399 C186.760187,31.4339941 187.744566,32.336909 189.373911,32.336909 C192.138837,32.336909 193.881582,28.9595501 193.881582,25.5821911 L193.881582,25.2278827 C193.124004,26.7210395 191.267858,27.7815155 188.993547,27.7815155 C184.296875,27.7815155 181.416974,24.168223 181.416974,19.8479465 C181.416974,15.2917366 184.448076,11.5608856 189.638513,11.5608856 C192.555426,11.5608856 195.131351,12.9748536 196.685096,15.9203483 C197.859264,18.0413003 198.313653,20.3973695 198.313653,23.5004252 C198.313653,31.0021297 194.98015,36.4612546 189.410924,36.4612546 C185.016653,36.4612546 182.439154,34.0259967 181.606763,29.9808399 L186.303435,29.9808399 Z" id="Fill-18" fill="#E94E1C"></path>
            <path d="M333.043211,16.0073801 C328.942588,16.0073801 327.261993,20.4908871 327.261993,26.2339218 C327.261993,31.9777476 328.942588,36.4612546 333.043211,36.4612546 C337.094177,36.4612546 338.822878,31.9777476 338.822878,26.2339218 C338.822878,20.4908871 337.094177,16.0073801 333.043211,16.0073801" id="Fill-20" fill="#231F20"></path>
            <g id="Group-24" transform="translate(205.428044, 0.000000)">
                <mask id="mask-4" fill="white">
                    <use xlink:href="#path-3"></use>
                </mask>
                <g id="Clip-23"></g>
                <path d="M261.025074,16.9639346 L246.127172,16.9639346 L246.127172,23.8265784 L259.64141,23.8265784 L259.64141,29.407402 L246.127172,29.407402 L246.127172,36.8836148 L261.025074,36.8836148 L261.025074,42.6703016 L239.67597,42.6703016 L239.67597,11.2295177 L261.025074,11.2295177 L261.025074,16.9639346 Z M233.630783,42.6703016 L228.458726,42.6703016 L213.61228,21.7261301 L213.61228,42.6703016 L207.315444,42.6703016 L207.315444,11.2295177 L213.459522,11.2295177 L227.333143,31.096928 L227.333143,11.2295177 L233.630783,11.2295177 L233.630783,42.6703016 Z M201.730941,30.0225793 C201.730941,38.6760724 196.560493,43.1817431 188.676584,43.1817431 C180.843327,43.1817431 175.620619,38.6760724 175.620619,30.0225793 L175.620619,11.2295177 L182.173927,11.2295177 L182.173927,29.3567404 C182.173927,34.7325049 184.529613,37.2929288 188.676584,37.2929288 C192.823556,37.2929288 195.177633,34.7325049 195.177633,29.3567404 L195.177633,11.2295177 L201.730941,11.2295177 L201.730941,30.0225793 Z M170.548257,31.3027912 C170.548257,39.2904455 165.939797,43.1817431 159.181472,43.1817431 C152.06698,43.1817431 148.175676,38.8296657 147.764838,32.6843265 L154.523164,32.6843265 C154.779636,35.5527412 156.316057,37.2422672 159.131624,37.2422672 C162.458528,37.2422672 163.994145,35.2962163 163.994145,31.2513254 L163.994145,11.2295177 L170.548257,11.2295177 L170.548257,31.3027912 Z M127.665936,43.1817431 C120.293364,43.1817431 115.276478,36.5257666 115.276478,26.9491055 C115.276478,17.3740527 120.293364,10.7172721 127.665936,10.7172721 C135.036901,10.7172721 140.055395,17.3740527 140.055395,26.9491055 C140.055395,36.5257666 135.036901,43.1817431 127.665936,43.1817431 Z M101.499335,43.1817431 C94.7418138,43.1817431 90.2362637,39.0339206 89.8776849,32.9408514 L96.3280826,32.9408514 C96.6360101,35.7055303 98.3259934,37.6001154 101.449488,37.6001154 C104.109885,37.6001154 106.004885,35.9620552 106.004885,33.4522929 C106.004885,30.7897415 103.957127,29.2023429 101.03865,29.2023429 L99.0423469,29.2023429 L99.0423469,24.133765 L100.835241,24.133765 C103.495638,24.133765 105.543396,22.8020872 105.543396,20.1901974 C105.543396,17.9876217 104.008582,16.2980957 101.449488,16.2980957 C98.5816617,16.2980957 97.0452401,18.1934849 96.8410271,20.5995114 L90.4927359,20.5995114 C91.106179,15.0178837 95.2024991,10.7172721 101.499335,10.7172721 C107.899885,10.7172721 111.738125,14.5064422 111.738125,19.8830109 C111.738125,22.9042147 110.151856,25.6182319 107.899885,26.6941889 C110.818363,27.9735968 112.251874,30.687614 112.251874,33.5552245 C112.251874,39.0339206 108.206205,43.1817431 101.499335,43.1817431 Z M82.2004012,29.4154436 L63.8582134,29.4154436 L65.8762239,23.8844775 L84.2192157,23.8844775 L82.2004012,29.4154436 Z M60.8810449,15.8887817 L50.5899954,42.6703016 L43.98684,42.6703016 L54.0720685,16.9639346 L39.6348516,16.9639346 L39.6348516,11.2295177 L60.8810449,11.2295177 L60.8810449,15.8887817 Z M37.3282094,42.6703016 L15.5698755,42.6703016 L15.5698755,38.4203517 L25.5521936,27.922131 C28.3179131,24.9009272 30.4661697,22.6991556 30.4661697,20.3437907 C30.4661697,18.1420191 28.9313561,16.5546206 26.4735641,16.5546206 C23.810755,16.5546206 22.4286992,18.4492056 22.2759415,20.906698 L15.5176163,20.906698 C16.1318633,15.0693495 20.2281834,10.7172721 26.4229128,10.7172721 C33.0260683,10.7172721 36.9688266,14.4035106 36.9688266,20.08807 C36.9688266,24.0308334 33.9482428,27.1035029 30.7226419,30.4825549 L24.6822783,36.9857423 L37.3282094,36.9857423 L37.3282094,42.6703016 Z M0.400225348,75.5907276 L276.534811,75.5907276 L276.534811,0.043745937 L0.400225348,0.043745937 L0.400225348,75.5907276 Z" id="Fill-22" fill="#231F20" mask="url(#mask-4)"></path>
            </g>
            <polygon id="Fill-25" fill="#F499B1" points="220.546125 62.2509225 220.546125 48.9114391 229.439114 48.9114391 229.439114 51.3438639 223.307509 51.3438639 223.307509 54.7338744 228.982681 54.7338744 228.982681 57.1451067 223.307509 57.1451067 223.307509 62.2509225"></polygon>
            <polygon id="Fill-27" fill="#F499B1" points="240.110701 48.9114391 240.110701 51.3446488 233.904409 51.3446488 233.904409 54.2558664 239.535146 54.2558664 239.535146 56.6239289 233.904409 56.6239289 233.904409 59.7957355 240.110701 59.7957355 240.110701 62.2509225 231.217712 62.2509225 231.217712 48.9114391"></polygon>
            <path d="M244.805247,58.9889099 C245.181215,60.2002496 246.175016,60.7621361 247.500882,60.7621361 C248.870651,60.7621361 249.776646,60.132953 249.776646,59.0343149 C249.776646,58.2032418 249.290522,57.7548677 248.119513,57.4856811 L245.688891,56.9237946 C243.744394,56.4746097 242.242118,55.4205658 242.242118,53.1535605 C242.242118,50.6619628 244.27522,48.9114391 247.124914,48.9114391 C250.21807,48.9114391 252.00771,50.5727745 252.449931,52.9070764 L249.64414,52.9070764 C249.334425,51.986815 248.560936,51.2692543 247.147264,51.2692543 C245.865301,51.2692543 245.004007,51.8968159 245.004007,52.8843739 C245.004007,53.6692313 245.512482,54.1411186 246.528633,54.3876027 L249.003158,54.9713809 C251.212669,55.4878625 252.560886,56.7673096 252.560886,58.8543166 C252.560886,61.5251018 250.395278,63.1402214 247.522434,63.1402214 C244.495532,63.1402214 242.353073,61.6142901 241.889299,58.9889099 L244.805247,58.9889099 Z" id="Fill-29" fill="#F499B1"></path>
            <polygon id="Fill-31" fill="#F499B1" points="253.450185 48.9114391 265.01107 48.9114391 265.01107 51.3446488 260.642261 51.3446488 260.642261 62.2509225 257.796676 62.2509225 257.796676 51.3446488 253.450185 51.3446488"></polygon>
            <mask id="mask-6" fill="white">
                <use xlink:href="#path-5"></use>
            </mask>
            <g id="Clip-34"></g>
            <polygon id="Fill-33" fill="#F499B1" mask="url(#mask-6)" points="266.789668 62.2509225 269.457565 62.2509225 269.457565 48.9114391 266.789668 48.9114391"></polygon>
            <polygon id="Fill-35" fill="#F499B1" mask="url(#mask-6)" points="276.480675 62.2509225 271.236162 48.9114391 274.313998 48.9114391 277.939681 58.5579381 281.566188 48.9114391 284.575646 48.9114391 279.308889 62.2509225"></polygon>
            <path d="M287.757479,56.6890761 L291.1091,56.6890761 L289.43329,52.2574949 L287.757479,56.6890761 Z M290.885497,48.9114391 L296.136531,62.2509225 L293.231309,62.2509225 L292.003511,59.0351612 L286.863875,59.0351612 L285.657065,62.2509225 L282.797048,62.2509225 L288.048082,48.9114391 L290.885497,48.9114391 Z" id="Fill-36" fill="#F499B1" mask="url(#mask-6)"></path>
            <polygon id="Fill-37" fill="#F499B1" mask="url(#mask-6)" points="297.915129 48.9114391 300.664746 48.9114391 300.664746 59.7957355 306.808118 59.7957355 306.808118 62.2509225 297.915129 62.2509225"></polygon>
            <path d="M314.128528,51.2793622 L311.494967,51.2793622 L311.494967,55.254679 L314.128528,55.254679 C315.640156,55.254679 316.373218,54.4297909 316.373218,53.2784011 C316.373218,52.083059 315.640156,51.2793622 314.128528,51.2793622 Z M311.494967,57.623387 L311.494967,62.2509225 L308.586716,62.2509225 L308.586716,48.9114391 L314.312207,48.9114391 C317.289131,48.9114391 319.258303,50.4324981 319.258303,53.2784011 C319.258303,56.1031128 317.289131,57.623387 314.312207,57.623387 L311.494967,57.623387 Z" id="Fill-38" fill="#F499B1" mask="url(#mask-6)"></path>
            <path d="M323.329942,56.6890761 L326.680553,56.6890761 L325.004844,52.2574949 L323.329942,56.6890761 Z M326.457771,48.9114391 L331.708487,62.2509225 L328.80344,62.2509225 L327.57491,59.0351612 L322.436392,59.0351612 L321.228848,62.2509225 L318.369004,62.2509225 L323.61972,48.9114391 L326.457771,48.9114391 Z" id="Fill-39" fill="#F499B1" mask="url(#mask-6)"></path>
            <path d="M336.252743,54.9944633 L338.823272,54.9944633 C340.216723,54.9944633 340.935086,54.2558664 340.935086,53.1475787 C340.935086,52.0180984 340.216723,51.2795016 338.823272,51.2795016 L336.252743,51.2795016 L336.252743,54.9944633 Z M336.252743,57.2754012 L336.252743,62.2509225 L333.487085,62.2509225 L333.487085,48.9114391 L338.996371,48.9114391 C341.806878,48.9114391 343.678714,50.4106102 343.678714,53.1475787 C343.678714,55.2770296 342.503211,56.6239289 340.629801,57.0799595 L344.158672,62.2509225 L341.022423,62.2509225 L337.7115,57.2754012 L336.252743,57.2754012 Z" id="Fill-40" fill="#F499B1" mask="url(#mask-6)"></path>
            <polygon id="Fill-41" fill="#F499B1" mask="url(#mask-6)" points="348.7666 54.9081236 353.872651 48.9114391 357.299311 48.9114391 352.12618 54.8861462 357.498155 62.2509225 354.072293 62.2509225 350.048303 56.7981781 348.7666 58.2965643 348.7666 62.2509225 345.937269 62.2509225 345.937269 48.9114391 348.7666 48.9114391"></polygon>
            <polygon id="Fill-42" fill="#F499B1" mask="url(#mask-6)" points="371.533757 48.9114391 373.860479 57.8844885 376.075423 48.9114391 378.841328 48.9114391 375.330238 62.2509225 372.762519 62.2509225 370.392989 53.4521223 368.022666 62.2509225 365.45574 62.2509225 361.944649 48.9114391 364.775561 48.9114391 366.969893 57.8844885 369.339424 48.9114391"></polygon>
            <polygon id="Fill-43" fill="#F499B1" mask="url(#mask-6)" points="389.512915 48.9114391 389.512915 51.3446488 383.306623 51.3446488 383.306623 54.2558664 388.93736 54.2558664 388.93736 56.6239289 383.306623 56.6239289 383.306623 59.7957355 389.512915 59.7957355 389.512915 62.2509225 380.619926 62.2509225 380.619926 48.9114391"></polygon>
            <path d="M394.947257,54.9944633 L397.516999,54.9944633 C398.91045,54.9944633 399.6296,54.2558664 399.6296,53.1475787 C399.6296,52.0180984 398.91045,51.2795016 397.516999,51.2795016 L394.947257,51.2795016 L394.947257,54.9944633 Z M394.947257,57.2754012 L394.947257,62.2509225 L392.180812,62.2509225 L392.180812,48.9114391 L397.690885,48.9114391 C400.500605,48.9114391 402.373228,50.4106102 402.373228,53.1475787 C402.373228,55.2770296 401.196937,56.6239289 399.324315,57.0799595 L402.852399,62.2509225 L399.716936,62.2509225 L396.406014,57.2754012 L394.947257,57.2754012 Z" id="Fill-44" fill="#F499B1" mask="url(#mask-6)"></path>
            <path d="M410.299789,48.9114391 C413.62398,48.9114391 415.665048,50.8200694 416.191882,53.5800429 L413.280212,53.5800429 C412.798937,52.3232982 411.927507,51.4703335 410.299789,51.4703335 C408.05246,51.4703335 406.722949,53.4000447 406.722949,56.0254249 C406.722949,58.6289134 408.05246,60.5821379 410.299789,60.5821379 C411.927507,60.5821379 412.798937,59.7291731 413.280212,58.4505367 L416.191882,58.4505367 C415.665048,61.2324019 413.62398,63.1402214 410.299789,63.1402214 C406.539054,63.1402214 403.741697,60.2456546 403.741697,56.0254249 C403.741697,51.8068167 406.539054,48.9114391 410.299789,48.9114391" id="Fill-45" fill="#F499B1" mask="url(#mask-6)"></path>
            <polygon id="Fill-46" fill="#F499B1" mask="url(#mask-6)" points="428.642066 48.9114391 428.642066 62.2509225 425.870739 62.2509225 425.870739 56.6459063 419.852508 56.6459063 419.852508 62.2509225 417.081181 62.2509225 417.081181 48.9114391 419.852508 48.9114391 419.852508 54.2126966 425.870739 54.2126966 425.870739 48.9114391"></polygon>
            <polygon id="Fill-47" fill="#F499B1" mask="url(#mask-6)" points="431.309963 48.9114391 442.870849 48.9114391 442.870849 51.3446488 438.502039 51.3446488 438.502039 62.2509225 435.655657 62.2509225 435.655657 51.3446488 431.309963 51.3446488"></polygon>
            <polygon id="Fill-48" fill="#F499B1" mask="url(#mask-6)" points="452.653137 48.9114391 452.653137 51.3446488 446.446844 51.3446488 446.446844 54.2558664 452.077581 54.2558664 452.077581 56.6239289 446.446844 56.6239289 446.446844 59.7957355 452.653137 59.7957355 452.653137 62.2509225 443.760148 62.2509225 443.760148 48.9114391"></polygon>
            <path d="M458.086692,54.9944633 L460.65722,54.9944633 C462.050671,54.9944633 462.769034,54.2558664 462.769034,53.1475787 C462.769034,52.0180984 462.050671,51.2795016 460.65722,51.2795016 L458.086692,51.2795016 L458.086692,54.9944633 Z M458.086692,57.2754012 L458.086692,62.2509225 L455.321033,62.2509225 L455.321033,48.9114391 L460.83032,48.9114391 C463.640827,48.9114391 465.512662,50.4106102 465.512662,53.1475787 C465.512662,55.2770296 464.337159,56.6239289 462.46375,57.0799595 L465.99262,62.2509225 L462.856371,62.2509225 L459.545449,57.2754012 L458.086692,57.2754012 Z" id="Fill-49" fill="#F499B1" mask="url(#mask-6)"></path>
        </g>
    </g>
</svg>