<?xml version="1.0" encoding="UTF-8"?>
<svg width="213px" height="76px" viewBox="0 0 213 76" version="1.1" xmlns="http://www.w3.org/2000/svg" xmlns:xlink="http://www.w3.org/1999/xlink">
    <!-- Generator: Sketch 51.2 (57519) - http://www.bohemiancoding.com/sketch -->
    <title>logo-sm</title>
    <desc>Created with Sketch.</desc>
    <defs>
        <polygon id="path-1" points="0 0.0435851064 212.768324 0.0435851064 212.768324 75.5904059 0 75.5904059"></polygon>
    </defs>
    <g id="logo-sm" stroke="none" stroke-width="1" fill="none" fill-rule="evenodd">
        <g id="Group-50">
            <path d="M29.3468635,18.2077185 C29.3468635,16.8713702 28.2807001,15.1180812 25.806787,15.1180812 L22.2324723,15.1180812 L22.2324723,21.3431734 L24.9364983,21.3431734 C28.650951,21.3431734 29.3468635,19.5898844 29.3468635,18.2077185" id="Fill-1" fill="#231F20"></path>
            <path d="M75.9210377,43.5756458 L72.0332103,43.5756458 L72.0332103,49.800738 L75.9210377,49.800738 C78.1386712,49.800738 79.1476015,48.5771738 79.1476015,46.6890299 C79.1476015,44.7966958 78.1386712,43.5756458 75.9210377,43.5756458" id="Fill-3" fill="#231F20"></path>
            <path d="M49.8180492,31.1254613 C53.7099286,31.1254613 55.1365314,28.9110046 55.1365314,23.4315607 C55.1365314,17.9610266 53.7414036,16.0073801 49.8180492,16.0073801 C45.893908,16.0073801 44.4649446,17.9610266 44.4649446,23.4315607 C44.4649446,28.9110046 45.9285305,31.1254613 49.8180492,31.1254613" id="Fill-5" fill="#231F20"></path>
            <path d="M190.640595,43.5756458 L186.752768,43.5756458 L186.752768,49.800738 L190.640595,49.800738 C192.859777,49.800738 193.867159,48.5771738 193.867159,46.6890299 C193.867159,44.7966958 192.859777,43.5756458 190.640595,43.5756458" id="Fill-7" fill="#231F20"></path>
            <g id="Group-11">
                <mask id="mask-2" fill="white">
                    <use xlink:href="#path-1"></use>
                </mask>
                <g id="Clip-10"></g>
                <path d="M194.082174,62.8897702 L188.901018,54.6914278 L186.637031,54.6914278 L186.637031,62.8897702 L180.206695,62.8897702 L180.206695,38.1001379 L191.368772,38.1001379 C196.706177,38.1001379 200.388478,41.1253624 200.388478,46.5397263 C200.388478,50.2911012 198.486117,52.8804747 195.456997,54.0111142 L201.279254,62.8897702 L194.082174,62.8897702 Z M177.790487,43.6721158 L166.430281,43.6721158 L166.430281,47.5553718 L176.819977,47.5553718 L176.819977,52.9994894 L166.430281,52.9994894 L166.430281,57.2775847 L177.790487,57.2775847 L177.790487,62.8897702 L160.043437,62.8897702 L160.043437,38.1001379 L177.790487,38.1001379 L177.790487,43.6721158 Z M158.193427,43.6721158 L150.508274,43.6721158 L150.508274,62.8897702 L143.999008,62.8897702 L143.999008,43.6721158 L136.358152,43.6721158 L136.358152,38.1001379 L158.193427,38.1001379 L158.193427,43.6721158 Z M134.552439,62.8897702 L128.042369,62.8897702 L128.042369,53.0774922 L118.458076,53.0774922 L118.458076,62.8897702 L111.9472,62.8897702 L111.9472,38.1001379 L118.458076,38.1001379 L118.458076,47.5022977 L128.042369,47.5022977 L128.042369,38.1001379 L134.552439,38.1001379 L134.552439,62.8897702 Z M99.3442572,57.5944211 C101.609855,57.5944211 102.943602,56.3897995 103.590341,54.529793 L110.059336,54.529793 C109.171782,59.6216914 105.52975,63.2982801 99.3442572,63.2982801 C92.3904097,63.2982801 87.4146314,58.0069517 87.4146314,50.4969644 C87.4146314,42.9901938 92.3904097,37.6948446 99.3442572,37.6948446 C105.52975,37.6948446 109.171782,41.3722375 110.059336,46.417495 L103.590341,46.417495 C102.943602,44.5993045 101.609855,43.3906621 99.3442572,43.3906621 C95.9092144,43.3906621 93.9657775,46.417495 93.9657775,50.4969644 C93.9657775,54.529793 95.9092144,57.5944211 99.3442572,57.5944211 Z M79.8663966,62.8897702 L74.6892676,54.6914278 L72.4268912,54.6914278 L72.4268912,62.8897702 L65.9981663,62.8897702 L65.9981663,38.1001379 L77.1562163,38.1001379 C82.492815,38.1001379 86.1710895,41.1253624 86.1710895,46.5397263 C86.1710895,50.2911012 84.2735606,52.8804747 81.2396083,54.0111142 L87.0634758,62.8897702 L79.8663966,62.8897702 Z M76.6335099,10.5972924 C79.395236,10.5972924 82.5894634,11.9265577 83.5776926,14.5738303 L83.5470873,11.313793 L88.3754769,11.313793 L88.3754769,21.3319342 L83.474601,21.3319342 C83.3054664,17.8000931 80.7877774,16.1379083 78.0985375,16.1379083 C75.0726393,16.1379083 71.9074064,18.2045822 71.9074064,23.1662078 C71.9074064,28.13105 75.3102331,30.3987621 78.5431198,30.3987621 C80.9271121,30.3987621 83.2047911,29.1812741 84.2920848,26.0555304 L88.7830107,28.5355391 C88.0331807,32.6423497 84.0206641,36.1034253 78.3393529,36.1034253 C69.5959005,36.1034253 64.7642892,30.8402423 64.7642892,23.2361691 C64.7642892,14.441145 71.1978466,10.5972924 76.6335099,10.5972924 Z M63.5795418,43.6721158 L52.2153087,43.6721158 L52.2153087,47.5553718 L62.6114476,47.5553718 L62.6114476,52.9994894 L52.2153087,52.9994894 L52.2153087,57.2775847 L63.5795418,57.2775847 L63.5795418,62.8897702 L45.8252431,62.8897702 L45.8252431,38.1001379 L63.5795418,38.1001379 L63.5795418,43.6721158 Z M37.9927011,62.8897702 L32.0536611,62.8897702 L28.2110845,48.3506794 L24.3266269,62.8897702 L18.3843653,62.8897702 L11.8726839,38.1001379 L18.5051757,38.1001379 L21.9829049,52.6738073 L25.8222599,38.1001379 L30.7561572,38.1001379 L34.5600745,52.6738073 L37.9927011,38.1001379 L44.5470689,38.1001379 L37.9927011,62.8897702 Z M11.6391171,31.4031496 L15.5058558,31.4031496 L15.5058558,15.4262327 L11.6391171,15.4262327 L11.6391171,11.3363093 L26.8716997,11.3363093 C32.7543615,11.4456741 35.8326109,14.5207561 35.8326109,17.8579921 C35.8326109,20.9676528 33.6676883,23.42997 29.2661621,23.5706969 L29.2661621,23.9084412 C32.5505946,23.9084412 33.2206897,25.3728043 34.0067628,27.9235784 C34.53108,29.6348166 34.8733762,30.738919 35.2180886,31.846238 C35.558774,32.9503404 36.5872733,33.6716659 38.9253575,33.1835449 C39.3586642,33.0910672 38.0007552,36.0165768 33.599229,36.0165768 C30.8930757,36.0165768 29.6261771,34.7395814 28.7595638,32.1059795 C27.4491735,28.1133586 26.8000188,25.9670736 24.5698586,25.9670736 L22.0706938,25.9670736 L22.0706938,31.4031496 L25.170689,31.4031496 L25.170689,35.4520612 L11.6391171,35.4520612 L11.6391171,31.4031496 Z M42.0511257,13.0781052 C44.1951079,11.5164396 46.8843477,10.5972924 49.9126621,10.5972924 C57.5366048,10.5972924 62.9787113,16.1692703 62.9787113,23.3021097 C62.9787113,30.4735484 57.5366048,36.1034253 49.9126621,36.1034253 C42.3225464,36.1034253 36.9464829,30.4735484 36.9464829,23.3021097 C36.9464829,19.053768 38.8866982,15.3868292 42.0511257,13.0781052 Z M90.1876331,31.3629419 L93.8022807,31.3629419 L93.8022807,15.4302535 L90.1876331,15.4302535 L90.1876331,11.2840393 L103.206969,11.2840393 L103.206969,15.4302535 L100.369535,15.4302535 L100.369535,22.8927957 L108.821432,15.4302535 L105.155238,15.4302535 L105.155238,11.2840393 L117.411052,11.2840393 L117.411052,15.4302535 L114.925579,15.4302535 L107.514263,21.6399249 L116.496115,31.3629419 L118.468546,31.3629419 L118.468546,35.4311532 L105.324373,35.4311532 L105.324373,31.3629419 L108.479941,31.3629419 L103.091796,25.3430506 L100.369535,27.6517746 L100.369535,31.3629419 L103.373687,31.3629419 L103.373687,35.4311532 L90.1876331,35.4311532 L90.1876331,31.3629419 Z M-0.00056378194,75.5905667 L212.768324,75.5905667 L212.768324,0.0435851064 L-0.00056378194,0.0435851064 L-0.00056378194,75.5905667 Z" id="Fill-9" fill="#231F20" mask="url(#mask-2)"></path>
            </g>
            <path d="M136.546955,15.947185 C134.484132,15.947185 133.413146,17.3708927 133.295247,19.2177135 L128.059041,19.2177135 C128.53476,14.8306143 131.708143,11.5608856 136.50738,11.5608856 C141.623214,11.5608856 144.677873,14.3307169 144.677873,18.60184 C144.677873,21.5652315 142.338029,23.8743574 139.838237,26.4130362 L135.158548,31.3000328 L144.95572,31.3000328 L144.95572,35.5719557 L128.09944,35.5719557 L128.09944,32.3774116 L135.833788,24.4894312 C137.974936,22.2194972 139.640364,20.564637 139.640364,18.7946004 C139.640364,17.1397402 138.451479,15.947185 136.546955,15.947185" id="Fill-12" fill="#FFDD17"></path>
            <path d="M151.556926,24.0110701 C151.556926,28.4882381 152.86985,31.9840866 156.072357,31.9840866 C159.235564,31.9840866 160.586184,28.4882381 160.586184,24.0110701 C160.586184,19.5339021 159.235564,16.0380536 156.072357,16.0380536 C152.86985,16.0380536 151.556926,19.5339021 151.556926,24.0110701 M146.734317,24.0110701 C146.734317,16.6658695 150.51589,11.5608856 156.072357,11.5608856 C161.628021,11.5608856 165.409594,16.6658695 165.409594,24.0110701 C165.409594,31.3562708 161.628021,36.4612546 156.072357,36.4612546 C150.51589,36.4612546 146.734317,31.3562708 146.734317,24.0110701" id="Fill-14" fill="#FFDD17"></path>
            <polygon id="Fill-16" fill="#FFDD17" points="177.859779 35.5719557 172.882795 35.5719557 172.882795 17.2704139 167.188192 20.0463306 167.188192 15.1586038 174.635044 11.5608856 177.859779 11.5608856"></polygon>
            <path d="M189.599925,15.6844148 C187.364989,15.6844148 185.77502,17.3343163 185.77502,19.7295716 C185.77502,22.2432019 187.364989,23.8931034 189.599925,23.8931034 C191.912036,23.8931034 193.464205,22.2432019 193.464205,19.7295716 C193.464205,17.3343163 191.912036,15.6844148 189.599925,15.6844148 Z M186.303435,29.9808399 C186.760187,31.4339941 187.744566,32.336909 189.373911,32.336909 C192.138837,32.336909 193.881582,28.9595501 193.881582,25.5821911 L193.881582,25.2278827 C193.124004,26.7210395 191.267858,27.7815155 188.993547,27.7815155 C184.296875,27.7815155 181.416974,24.168223 181.416974,19.8479465 C181.416974,15.2917366 184.448076,11.5608856 189.638513,11.5608856 C192.555426,11.5608856 195.131351,12.9748536 196.685096,15.9203483 C197.859264,18.0413003 198.313653,20.3973695 198.313653,23.5004252 C198.313653,31.0021297 194.98015,36.4612546 189.410924,36.4612546 C185.016653,36.4612546 182.439154,34.0259967 181.606763,29.9808399 L186.303435,29.9808399 Z" id="Fill-18" fill="#FFDD17"></path>
        </g>
    </g>
</svg>