<?xml version="1.0" encoding="UTF-8"?>
<svg width="3514px" height="400px" viewBox="0 0 3514 400" version="1.1" xmlns="http://www.w3.org/2000/svg" xmlns:xlink="http://www.w3.org/1999/xlink">
    <!-- Generator: Sketch 51.2 (57519) - http://www.bohemiancoding.com/sketch -->
    <title>pattern-5-beta</title>
    <desc>Created with Sketch.</desc>
    <defs></defs>
    <g id="pattern-5-beta" stroke="none" stroke-width="1" fill="none" fill-rule="evenodd">
        <g id="Group-3" transform="translate(-290.000000, 0.000000)">
            <polygon id="Fill-1" fill="#F05A28" points="0 412.431699 4033 412.431699 4033 0 0 0"></polygon>
            <path d="M4017.3964,0 L3957.92806,104.062926 L3898.45972,0 L3875.63809,0 L3957.91322,143.97998 L3957.91322,144.029462 L3957.92806,144.004721 L3957.9429,144.029462 L3957.9429,143.97998 L4033,12.6376792 L4033,0 L4017.3964,0 Z M3971.32025,0 L3957.92806,23.4371055 L3944.53587,0 L3921.71424,0 L3957.91322,63.3492121 L3957.91322,63.4011681 L3957.92806,63.3739531 L3957.9429,63.4011681 L3957.9429,63.3492121 L3994.14435,0 L3971.32025,0 Z M3829.56689,0 L3831.31079,3.0530337 L3810.87868,38.8086601 L3790.45151,3.06293008 L3792.20284,0 L3769.3812,0 L3663.83919,184.69122 L3558.29966,0 L3535.47802,0 L3537.22193,3.0530337 L3516.78981,38.8086601 L3496.36512,3.06540417 L3498.11644,0 L3475.29728,0 L3369.75527,184.69122 L3264.21079,0 L3241.3941,0 L3243.13801,3.0530337 L3222.70589,38.8086601 L3202.27131,3.0505596 L3204.01521,0 L3181.19358,0 L3075.65157,184.69122 L2970.10956,0 L2947.2904,0 L2949.03677,3.0530337 L2928.60219,38.8086601 L2908.17502,3.06540417 L2909.92882,0 L2887.10966,0 L2781.56765,184.69122 L2676.02564,0 L2653.204,0 L2654.94791,3.0530337 L2634.51579,38.8086601 L2614.08863,3.06293008 L2615.83995,0 L2593.01832,0 L2487.47631,184.69122 L2381.93677,0 L2359.11514,0 L2360.86151,3.0530337 L2340.42693,38.8086601 L2320.00223,3.06540417 L2321.75356,0 L2298.9344,0 L2193.39239,184.69122 L2087.85038,0 L2065.02874,0 L2066.77265,3.0530337 L2046.34053,38.8086601 L2025.92079,3.07282646 L2027.67706,0 L2004.8579,0 L1899.31342,184.69122 L1793.7714,0 L1770.95225,0 L1772.69862,3.0530337 L1752.26651,38.8086601 L1731.83934,3.06540417 L1733.59314,0 L1710.77398,0 L1605.2295,184.69122 L1499.68749,0 L1476.86833,0 L1478.6147,3.0530337 L1458.18012,38.8086601 L1437.75048,3.06293008 L1439.5018,0 L1416.68264,0 L1311.13816,184.69122 L1205.59862,0 L1182.77946,0 L1184.52584,3.0530337 L1164.09125,38.8086601 L1143.66408,3.06540417 L1145.41788,0 L1122.59872,0 L1017.05424,184.69122 L911.5147,0 L888.693068,0 L890.439445,3.0530337 L870.004857,38.8086601 L849.570269,3.0505596 L851.314173,0 L828.495014,0 L722.953003,184.69122 L617.413466,0 L594.591833,0 L596.335737,3.0530337 L575.903623,38.8086601 L555.476456,3.06540417 L557.230254,0 L534.411095,0 L428.86661,184.69122 L323.327073,0 L300.507914,0 L302.251817,3.0530337 L281.81723,38.8086601 L261.387589,3.06293008 L263.138914,0 L240.319755,0 L134.780218,184.69122 L29.2382068,0 L6.41657431,0 L8.1604775,3.0530337 L0,17.3359863 L0,57.2777821 L19.5737673,23.0239316 L31.2022623,43.3634697 L0,97.9642806 L0,137.906076 L42.6130785,63.3343676 L54.2415734,83.6739057 L0,178.592575 L0,218.534371 L65.6548632,103.642329 L77.2784109,123.984342 L0,259.220869 L0,299.160191 L88.6941744,143.950291 L100.320196,164.294778 L0,339.849163 L0,379.788485 L111.733486,184.263201 L123.359507,204.60274 L4.59598884,412.431699 L27.4003059,412.431699 L33.8045121,401.226521 L40.2087183,412.431699 L63.0303508,412.431699 L45.217802,381.258098 L56.8438233,360.916085 L86.2823934,412.431699 L109.106499,412.431699 L68.2571131,340.945188 L79.8831344,320.605649 L132.356068,412.431699 L137.154894,412.431699 L189.645144,320.57596 L201.273638,340.920447 L160.406937,412.431699 L183.231043,412.431699 L212.684455,360.88887 L224.31295,381.228409 L206.483085,412.431699 L229.304718,412.431699 L235.723766,401.196832 L242.145287,412.431699 L264.947131,412.431699 L146.191034,204.612636 L157.819529,184.270624 L281.802388,401.236418 L281.802388,401.2859 L281.81723,401.261159 L281.832072,401.2859 L281.832072,401.236418 L405.824826,184.263201 L417.448373,204.60274 L298.684855,412.431699 L321.489172,412.431699 L327.893379,401.226521 L334.297585,412.431699 L357.121691,412.431699 L339.306668,381.258098 L350.93269,360.916085 L380.37126,412.431699 L403.197839,412.431699 L362.348453,340.945188 L373.972001,320.605649 L426.447408,412.431699 L431.246234,412.431699 L483.73401,320.580909 L495.360031,340.922921 L454.495803,412.431699 L477.322383,412.431699 L506.773321,360.891345 L518.399342,381.233357 L500.571952,412.431699 L523.396058,412.431699 L529.812632,401.199306 L536.23168,412.431699 L559.033524,412.431699 L440.277427,204.617584 L451.905921,184.275572 L575.888781,401.236418 L575.888781,401.2859 L575.903623,401.261159 L575.915991,401.2859 L575.915991,401.236418 L699.908745,184.263201 L711.534766,204.60274 L592.771248,412.431699 L615.575565,412.431699 L621.979771,401.226521 L628.383977,412.431699 L651.20561,412.431699 L633.393061,381.258098 L645.016609,360.916085 L674.455179,412.431699 L697.281759,412.431699 L656.432372,340.945188 L668.060867,320.605649 L720.531328,412.431699 L725.330153,412.431699 L777.827824,320.566064 L789.453845,340.908076 L748.582196,412.431699 L771.406302,412.431699 L800.867135,360.874026 L812.493156,381.218512 L794.655871,412.431699 L817.479977,412.431699 L823.906446,401.186936 L830.332915,412.431699 L853.137232,412.431699 L734.373714,204.600265 L745.999735,184.260727 L869.990015,401.236418 L869.990015,401.2859 L870.004857,401.261159 L870.019699,401.2859 L870.019699,401.236418 L994.009979,184.263201 L1005.636,204.60274 L886.874956,412.431699 L909.6768,412.431699 L916.083479,401.226521 L922.485212,412.431699 L945.309318,412.431699 L927.494296,381.258098 L939.120317,360.916085 L968.558887,412.431699 L991.382993,412.431699 L950.533607,340.950136 L962.159628,320.605649 L1014.63504,412.431699 L1019.43139,412.431699 L1071.92164,320.580909 L1083.54766,340.922921 L1042.6859,412.431699 L1065.50754,412.431699 L1094.96095,360.891345 L1106.58697,381.233357 L1088.75711,412.431699 L1111.58121,412.431699 L1118.00026,401.199306 L1124.41931,412.431699 L1147.22115,412.431699 L1028.46505,204.617584 L1040.09108,184.275572 L1164.07641,401.236418 L1164.07641,401.2859 L1164.09125,401.261159 L1164.10362,401.2859 L1164.10362,401.236418 L1288.0939,184.263201 L1299.72239,204.605214 L1180.95888,412.431699 L1203.76072,412.431699 L1210.1674,401.226521 L1216.56913,412.431699 L1239.39571,412.431699 L1221.58069,381.258098 L1233.20671,360.916085 L1262.64528,412.431699 L1285.46691,412.431699 L1244.61753,340.950136 L1256.24602,320.605649 L1308.72143,412.431699 L1313.51778,412.431699 L1366.00803,320.57596 L1377.63405,340.915498 L1336.76735,412.431699 L1359.59393,412.431699 L1389.04981,360.88887 L1400.67584,381.228409 L1382.8435,412.431699 L1405.6676,412.431699 L1412.08665,401.196832 L1418.50817,412.431699 L1441.31249,412.431699 L1322.55392,204.612636 L1334.17994,184.270624 L1458.16527,401.236418 L1458.16527,401.2859 L1458.18012,401.261159 L1458.19496,401.2859 L1458.19496,401.236418 L1582.18524,184.263201 L1593.81126,204.60274 L1475.05022,412.431699 L1497.84959,412.431699 L1504.25626,401.226521 L1510.658,412.431699 L1533.48458,412.431699 L1515.66955,381.258098 L1527.29558,360.916085 L1556.73415,412.431699 L1579.55825,412.431699 L1538.70887,340.950136 L1550.33489,320.605649 L1602.81029,412.431699 L1607.60665,412.431699 L1660.0969,320.580909 L1671.72292,340.922921 L1630.85869,412.431699 L1653.6828,412.431699 L1683.13621,360.891345 L1694.76223,381.233357 L1676.93236,412.431699 L1699.75647,412.431699 L1706.17552,401.199306 L1712.59457,412.431699 L1735.39641,412.431699 L1616.64031,204.617584 L1628.26633,184.275572 L1752.25167,401.236418 L1752.25167,401.2859 L1752.26651,401.261159 L1752.27888,401.2859 L1752.27888,401.236418 L1876.27163,184.263201 L1887.89765,204.605214 L1769.13413,412.431699 L1791.93598,412.431699 L1798.34018,401.226521 L1804.74439,412.431699 L1827.5685,412.431699 L1809.75347,381.258098 L1821.38197,360.916085 L1850.82054,412.431699 L1873.64217,412.431699 L1832.79278,340.950136 L1844.41881,320.605649 L1896.89421,412.431699 L1901.69304,412.431699 L1954.17587,320.588331 L1965.80436,340.930343 L1924.94261,412.431699 L1947.76671,412.431699 L1977.21518,360.898767 L1988.8412,381.240779 L1971.01628,412.431699 L1993.84039,412.431699 L2000.25449,401.206729 L2006.67106,412.431699 L2029.47291,412.431699 L1910.72176,204.625006 L1922.34778,184.28052 L2046.32817,401.236418 L2046.32817,401.2859 L2046.34053,401.261159 L2046.35785,401.2859 L2046.35785,401.236418 L2170.34566,184.263201 L2181.97415,204.60274 L2063.21063,412.431699 L2086.01495,412.431699 L2092.41668,401.226521 L2098.82089,412.431699 L2121.64499,412.431699 L2103.82997,381.258098 L2115.45847,360.916085 L2144.89704,412.431699 L2167.72114,412.431699 L2126.87176,340.950136 L2138.49778,320.605649 L2190.97319,412.431699 L2195.76706,412.431699 L2248.25731,320.580909 L2259.88333,340.922921 L2219.01911,412.431699 L2241.84321,412.431699 L2271.29662,360.891345 L2282.92265,381.233357 L2265.09526,412.431699 L2287.91936,412.431699 L2294.33841,401.199306 L2300.75498,412.431699 L2323.5593,412.431699 L2204.80073,204.617584 L2216.42923,184.275572 L2340.41208,401.236418 L2340.41208,401.2859 L2340.42693,401.261159 L2340.44177,401.2859 L2340.44177,401.236418 L2464.43205,184.263201 L2476.05807,204.60274 L2357.29703,412.431699 L2380.09887,412.431699 L2386.50555,401.226521 L2392.90728,412.431699 L2415.73139,412.431699 L2397.91636,381.258098 L2409.54239,360.916085 L2438.98096,412.431699 L2461.80506,412.431699 L2420.95568,340.950136 L2432.5817,320.605649 L2485.0571,412.431699 L2489.85346,412.431699 L2542.34618,320.57596 L2553.9722,340.915498 L2513.1055,412.431699 L2535.92961,412.431699 L2565.38549,360.88887 L2577.00904,381.228409 L2559.17917,412.431699 L2582.00575,412.431699 L2588.4248,401.196832 L2594.84632,412.431699 L2617.64817,412.431699 L2498.8896,204.612636 L2510.51562,184.270624 L2634.50342,401.236418 L2634.50342,401.2859 L2634.51579,401.261159 L2634.53311,401.2859 L2634.53311,401.236418 L2758.52339,184.263201 L2770.14694,204.60274 L2651.38589,412.431699 L2674.18774,412.431699 L2680.59442,401.226521 L2686.99615,412.431699 L2709.82025,412.431699 L2692.00523,381.258098 L2703.63373,360.916085 L2733.06982,412.431699 L2755.8964,412.431699 L2715.04702,340.950136 L2726.67304,320.605649 L2779.14597,412.431699 L2783.94232,412.431699 L2836.43257,320.580909 L2848.05859,340.922921 L2807.19684,412.431699 L2830.01847,412.431699 L2859.47188,360.891345 L2871.09791,381.233357 L2853.27051,412.431699 L2876.09215,412.431699 L2882.5112,401.199306 L2888.93024,412.431699 L2911.73456,412.431699 L2792.97846,204.617584 L2804.60448,184.275572 L2928.58734,401.236418 L2928.58734,401.2859 L2928.60219,401.261159 L2928.61703,401.2859 L2928.61703,401.236418 L3052.60731,184.263201 L3064.23333,204.60274 L2945.47228,412.431699 L2968.27165,412.431699 L2974.67833,401.226521 L2981.08007,412.431699 L3003.90665,412.431699 L2986.09162,381.258098 L2997.71765,360.916085 L3027.15622,412.431699 L3049.97785,412.431699 L3009.12846,340.950136 L3020.75696,320.605649 L3073.23236,412.431699 L3078.02872,412.431699 L3130.52639,320.566064 L3142.15241,340.908076 L3101.28076,412.431699 L3124.10239,412.431699 L3153.56322,360.874026 L3165.19172,381.216038 L3147.35443,412.431699 L3170.17854,412.431699 L3176.60501,401.186936 L3183.03148,412.431699 L3205.83579,412.431699 L3087.0698,204.600265 L3098.6983,184.260727 L3222.69105,401.236418 L3222.69105,401.2859 L3222.70589,401.261159 L3222.71826,401.2859 L3222.71826,401.236418 L3346.71102,184.263201 L3358.33704,204.605214 L3239.57352,412.431699 L3262.37536,412.431699 L3268.77957,401.226521 L3275.18377,412.431699 L3298.00788,412.431699 L3280.19286,381.258098 L3291.81888,360.916085 L3321.25745,412.431699 L3344.08156,412.431699 L3303.23464,340.950136 L3314.85819,320.605649 L3367.3336,412.431699 L3372.12995,412.431699 L3424.6202,320.580909 L3436.24622,340.922921 L3395.38199,412.431699 L3418.2061,412.431699 L3447.65951,360.891345 L3459.28553,381.233357 L3441.45814,412.431699 L3464.28225,412.431699 L3470.69882,401.199306 L3477.11787,412.431699 L3499.92219,412.431699 L3381.16609,204.617584 L3392.79211,184.273098 L3516.77744,401.236418 L3516.77744,401.2859 L3516.78981,401.261159 L3516.80218,401.2859 L3516.80218,401.236418 L3640.79493,184.263201 L3652.42343,204.605214 L3533.65991,412.431699 L3556.46176,412.431699 L3562.86349,401.226521 L3569.26769,412.431699 L3592.0918,412.431699 L3574.27925,381.258098 L3585.90527,360.916085 L3615.34384,412.431699 L3638.16548,412.431699 L3597.31856,340.950136 L3608.94706,320.605649 L3661.41752,412.431699 L3666.21634,412.431699 L3718.70659,320.57596 L3730.33261,340.915498 L3689.46591,412.431699 L3712.29249,412.431699 L3741.7459,360.88887 L3753.37193,381.228409 L3735.54206,412.431699 L3758.36617,412.431699 L3764.78522,401.196832 L3771.20674,412.431699 L3794.01105,412.431699 L3675.25248,204.612636 L3686.88098,184.270624 L3810.86631,401.236418 L3810.86631,401.2859 L3810.87868,401.261159 L3810.89105,401.2859 L3810.89105,401.236418 L3934.8838,184.263201 L3946.5123,204.605214 L3827.74878,412.431699 L3850.55062,412.431699 L3856.95483,401.226521 L3863.35903,412.431699 L3886.18067,412.431699 L3868.36812,381.258098 L3879.99414,360.916085 L3909.43271,412.431699 L3932.25682,412.431699 L3891.40743,340.950136 L3903.03592,320.605649 L3955.50886,412.431699 L3960.30521,412.431699 L4012.79299,320.580909 L4024.41901,340.922921 L3983.55725,412.431699 L4006.38136,412.431699 L4033,365.851906 L4033,316.016203 L3969.33888,204.617584 L3980.9649,184.273098 L4033,275.329704 L4033,235.387908 L3992.37819,164.307148 L4004.00668,143.965136 L4033,194.70141 L4033,154.762088 L4015.4175,123.996712 L4027.04599,103.657174 L4033,114.073116 L4033,53.3241777 L3957.92806,184.69122 L3852.38605,0 L3829.56689,0 Z M3179.23199,43.3634697 L3190.85554,23.0189834 L3222.69105,78.7257149 L3222.69105,78.7776709 L3222.70589,78.7504559 L3222.71826,78.7776709 L3222.71826,78.7257149 L3254.54882,23.0239316 L3266.17732,43.3634697 L3222.70589,119.436954 L3179.23199,43.3634697 Z M826.530958,43.3634697 L838.15698,23.0189834 L869.990015,78.7257149 L869.990015,78.7776709 L870.004857,78.7504559 L870.019699,78.7776709 L870.019699,78.7257149 L901.852735,23.0239316 L913.478756,43.3634697 L870.004857,119.436954 L826.530958,43.3634697 Z M3810.89105,78.7257149 L3842.72408,23.0239316 L3854.3501,43.3634697 L3810.87868,119.436954 L3767.4122,43.3733661 L3779.03822,23.0313539 L3810.86631,78.7257149 L3810.86631,78.7776709 L3810.87868,78.7504559 L3810.89105,78.7776709 L3810.89105,78.7257149 Z M3516.80218,78.7257149 L3548.63769,23.0239316 L3560.26124,43.3634697 L3516.78981,119.436954 L3473.32333,43.3758402 L3484.94936,23.033828 L3516.77744,78.7257149 L3516.77744,78.7776709 L3516.78981,78.7504559 L3516.80218,78.7776709 L3516.80218,78.7257149 Z M2928.61703,78.7257149 L2960.44759,23.0239316 L2972.07608,43.3634697 L2928.60219,119.436954 L2885.13571,43.3758402 L2896.7642,23.033828 L2928.58734,78.7257149 L2928.58734,78.7776709 L2928.60219,78.7504559 L2928.61703,78.7776709 L2928.61703,78.7257149 Z M2634.53311,78.7257149 L2666.36367,23.0239316 L2677.99217,43.3634697 L2634.51579,119.436954 L2591.04931,43.3733661 L2602.67781,23.033828 L2634.50342,78.7257149 L2634.50342,78.7776709 L2634.51579,78.7504559 L2634.53311,78.7776709 L2634.53311,78.7257149 Z M2340.44177,78.7257149 L2372.27233,23.0239316 L2383.90083,43.3634697 L2340.42693,119.436954 L2296.96292,43.3758402 L2308.58894,23.033828 L2340.41208,78.7257149 L2340.41208,78.7776709 L2340.42693,78.7504559 L2340.44177,78.7776709 L2340.44177,78.7257149 Z M2046.35785,78.7257149 L2078.18841,23.0239316 L2089.81443,43.3634697 L2046.34053,119.436954 L2002.879,43.3832624 L2014.5075,23.0412503 L2046.32817,78.7257149 L2046.32817,78.7776709 L2046.34053,78.7504559 L2046.35785,78.7776709 L2046.35785,78.7257149 Z M1752.27888,78.7257149 L1784.11191,23.0239316 L1795.73793,43.3634697 L1752.26651,119.436954 L1708.80003,43.3758402 L1720.42605,23.033828 L1752.25167,78.7257149 L1752.25167,78.7776709 L1752.26651,78.7504559 L1752.27888,78.7776709 L1752.27888,78.7257149 Z M1458.19496,78.7257149 L1490.02799,23.0239316 L1501.65401,43.3634697 L1458.18012,119.436954 L1414.71116,43.3733661 L1426.33966,23.0313539 L1458.16527,78.7257149 L1458.16527,78.7776709 L1458.18012,78.7504559 L1458.19496,78.7776709 L1458.19496,78.7257149 Z M1164.10362,78.7257149 L1195.93665,23.0239316 L1207.56267,43.3634697 L1164.09125,119.436954 L1120.62477,43.3758402 L1132.25327,23.033828 L1164.07641,78.7257149 L1164.07641,78.7776709 L1164.09125,78.7504559 L1164.10362,78.7776709 L1164.10362,78.7257149 Z M575.915991,78.7257149 L607.749026,23.0239316 L619.375048,43.3634697 L575.903623,119.436954 L532.437145,43.3758402 L544.063166,23.033828 L575.888781,78.7257149 L575.888781,78.7776709 L575.903623,78.7504559 L575.915991,78.7776709 L575.915991,78.7257149 Z M281.832072,78.7257149 L313.662634,23.0239316 L325.291129,43.3634697 L281.81723,119.436954 L238.348278,43.3733661 L249.976773,23.033828 L281.802388,78.7257149 L281.802388,78.7776709 L281.81723,78.7504559 L281.832072,78.7776709 L281.832072,78.7257149 Z M3156.19021,83.6714316 L3167.81623,63.3318935 L3222.69105,159.354009 L3222.69105,159.401017 L3222.70589,159.37875 L3222.71826,159.401017 L3222.71826,159.354009 L3277.59061,63.3343676 L3289.21663,83.6739057 L3222.70589,200.065249 L3156.19021,83.6714316 Z M803.491647,83.6714316 L815.120142,63.3318935 L869.990015,159.354009 L869.990015,159.401017 L870.004857,159.37875 L870.019699,159.401017 L870.019699,159.354009 L924.892046,63.3343676 L936.518067,83.6739057 L870.004857,200.065249 L803.491647,83.6714316 Z M3810.89105,159.354009 L3865.76587,63.3343676 L3877.39189,83.6739057 L3810.87868,200.065249 L3744.37042,83.683802 L3755.99891,63.3393158 L3810.86631,159.354009 L3810.86631,159.401017 L3810.87868,159.37875 L3810.89105,159.401017 L3810.89105,159.354009 Z M3516.80218,159.354009 L3571.677,63.3343676 L3583.30302,83.6739057 L3516.78981,200.065249 L3450.28402,83.6887502 L3461.91004,63.3442639 L3516.77744,159.354009 L3516.77744,159.401017 L3516.78981,159.37875 L3516.80218,159.401017 L3516.80218,159.354009 Z M2928.61703,159.354009 L2983.4869,63.3343676 L2995.1154,83.6739057 L2928.60219,200.065249 L2862.0964,83.6887502 L2873.72242,63.3442639 L2928.58734,159.354009 L2928.58734,159.401017 L2928.60219,159.37875 L2928.61703,159.401017 L2928.61703,159.354009 Z M2634.53311,159.354009 L2689.40298,63.3343676 L2701.029,83.6739057 L2634.51579,200.065249 L2568.01,83.683802 L2579.63602,63.3393158 L2634.50342,159.354009 L2634.50342,159.401017 L2634.51579,159.37875 L2634.53311,159.401017 L2634.53311,159.354009 Z M2340.44177,159.354009 L2395.31411,63.3343676 L2406.94014,83.6739057 L2340.42693,200.065249 L2273.92114,83.6887502 L2285.54716,63.3442639 L2340.41208,159.354009 L2340.41208,159.401017 L2340.42693,159.37875 L2340.44177,159.401017 L2340.44177,159.354009 Z M2046.35785,159.354009 L2101.22772,63.3343676 L2112.85622,83.6739057 L2046.34053,200.065249 L1979.83969,83.6936984 L1991.46571,63.3541603 L2046.32817,159.354009 L2046.32817,159.401017 L2046.34053,159.37875 L2046.35785,159.401017 L2046.35785,159.354009 Z M1752.27888,159.354009 L1807.15122,63.3343676 L1818.77725,83.6739057 L1752.26651,200.065249 L1685.76072,83.6887502 L1697.38674,63.3442639 L1752.25167,159.354009 L1752.25167,159.401017 L1752.26651,159.37875 L1752.27888,159.401017 L1752.27888,159.354009 Z M1458.19496,159.354009 L1513.0673,63.3343676 L1524.69333,83.6739057 L1458.18012,200.065249 L1391.67185,83.683802 L1403.30035,63.3393158 L1458.16527,159.354009 L1458.16527,159.401017 L1458.18012,159.37875 L1458.19496,159.401017 L1458.19496,159.354009 Z M1164.10362,159.354009 L1218.97596,63.3343676 L1230.60446,83.6739057 L1164.09125,200.065249 L1097.58546,83.6887502 L1109.21148,63.3442639 L1164.07641,159.354009 L1164.07641,159.401017 L1164.09125,159.37875 L1164.10362,159.401017 L1164.10362,159.354009 Z M575.915991,159.354009 L630.790811,63.3343676 L642.414359,83.6739057 L575.903623,200.065249 L509.39536,83.6887502 L521.023855,63.3442639 L575.888781,159.354009 L575.888781,159.401017 L575.903623,159.37875 L575.915991,159.401017 L575.915991,159.354009 Z M281.832072,159.354009 L336.701945,63.3343676 L348.33044,83.6739057 L281.81723,200.065249 L215.308967,83.683802 L226.937462,63.3393158 L281.802388,159.354009 L281.802388,159.401017 L281.81723,159.37875 L281.832072,159.401017 L281.832072,159.354009 Z M3133.1509,123.981868 L3144.77692,103.642329 L3222.69105,239.982303 L3222.69105,240.029311 L3222.70589,240.00457 L3222.71826,240.029311 L3222.71826,239.982303 L3300.62992,103.642329 L3312.25594,123.984342 L3222.70589,280.693543 L3133.1509,123.981868 Z M780.452336,123.981868 L792.078357,103.642329 L869.990015,239.982303 L869.990015,240.029311 L870.004857,240.00457 L870.019699,240.029311 L870.019699,239.982303 L947.931357,103.642329 L959.557378,123.984342 L870.004857,280.693543 L780.452336,123.981868 Z M3810.89105,239.982303 L3888.80518,103.642329 L3900.4312,123.984342 L3810.87868,280.693543 L3721.33111,123.991764 L3732.95713,103.649752 L3810.86631,239.982303 L3810.86631,240.029311 L3810.87868,240.00457 L3810.89105,240.029311 L3810.89105,239.982303 Z M3516.80218,239.982303 L3594.71631,103.642329 L3606.34233,123.984342 L3516.78981,280.693543 L3427.24471,123.996712 L3438.87073,103.657174 L3516.77744,239.982303 L3516.77744,240.029311 L3516.78981,240.00457 L3516.80218,240.029311 L3516.80218,239.982303 Z M2928.61703,239.982303 L3006.52621,103.642329 L3018.15471,123.984342 L2928.60219,280.693543 L2839.05709,123.996712 L2850.68311,103.657174 L2928.58734,239.982303 L2928.58734,240.029311 L2928.60219,240.00457 L2928.61703,240.029311 L2928.61703,239.982303 Z M2634.53311,239.982303 L2712.44229,103.642329 L2724.07079,123.984342 L2634.51579,280.693543 L2544.97069,123.991764 L2556.59671,103.649752 L2634.50342,239.982303 L2634.50342,240.029311 L2634.51579,240.00457 L2634.53311,240.029311 L2634.53311,239.982303 Z M2340.44177,239.982303 L2418.35343,103.642329 L2429.97945,123.984342 L2340.42693,280.693543 L2250.88183,123.996712 L2262.50785,103.657174 L2340.41208,239.982303 L2340.41208,240.029311 L2340.42693,240.00457 L2340.44177,240.029311 L2340.44177,239.982303 Z M2046.35785,239.982303 L2124.26951,103.642329 L2135.89553,123.984342 L2046.34053,280.693543 L1956.80038,124.004134 L1968.42888,103.664596 L2046.32817,239.982303 L2046.32817,240.029311 L2046.34053,240.00457 L2046.35785,240.029311 L2046.35785,239.982303 Z M1752.27888,239.982303 L1830.19054,103.642329 L1841.81656,123.984342 L1752.26651,280.693543 L1662.72141,123.996712 L1674.34743,103.657174 L1752.25167,239.982303 L1752.25167,240.029311 L1752.26651,240.00457 L1752.27888,240.029311 L1752.27888,239.982303 Z M1458.19496,239.982303 L1536.10662,103.642329 L1547.73264,123.984342 L1458.18012,280.693543 L1368.63254,123.991764 L1380.25856,103.649752 L1458.16527,239.982303 L1458.16527,240.029311 L1458.18012,240.00457 L1458.19496,240.029311 L1458.19496,239.982303 Z M1164.10362,239.982303 L1242.01528,103.642329 L1253.64377,123.984342 L1164.09125,280.693543 L1074.54615,123.996712 L1086.17217,103.657174 L1164.07641,239.982303 L1164.07641,240.029311 L1164.09125,240.00457 L1164.10362,240.029311 L1164.10362,239.982303 Z M575.915991,239.982303 L653.830122,103.642329 L665.45367,123.984342 L575.903623,280.693543 L486.356049,123.996712 L497.984544,103.657174 L575.888781,239.982303 L575.888781,240.029311 L575.903623,240.00457 L575.915991,240.029311 L575.915991,239.982303 Z M281.832072,239.982303 L359.74373,103.642329 L371.369751,123.984342 L281.81723,280.693543 L192.269656,123.991764 L203.898151,103.649752 L281.802388,239.982303 L281.802388,240.029311 L281.81723,240.00457 L281.832072,240.029311 L281.832072,239.982303 Z M3110.10911,164.294778 L3121.73761,143.947817 L3222.69105,320.608124 L3222.69105,320.657605 L3222.70589,320.632865 L3222.71826,320.657605 L3222.71826,320.608124 L3323.66923,143.950291 L3335.29525,164.294778 L3222.70589,361.321837 L3110.10911,164.294778 Z M757.410551,164.294778 L769.039046,143.947817 L869.990015,320.608124 L869.990015,320.657605 L870.004857,320.632865 L870.019699,320.657605 L870.019699,320.608124 L970.970668,143.950291 L982.599163,164.294778 L870.004857,361.321837 L757.410551,164.294778 Z M3810.89105,320.608124 L3911.84449,143.950291 L3923.47298,164.294778 L3810.87868,361.321837 L3698.29179,164.3022 L3709.91782,143.962662 L3810.86631,320.608124 L3810.86631,320.657605 L3810.87868,320.632865 L3810.89105,320.657605 L3810.89105,320.608124 Z M3516.80218,320.608124 L3617.75562,143.950291 L3629.38164,164.294778 L3516.78981,361.321837 L3404.20293,164.307148 L3415.83142,143.965136 L3516.77744,320.608124 L3516.77744,320.657605 L3516.78981,320.632865 L3516.80218,320.657605 L3516.80218,320.608124 Z M2928.61703,320.608124 L3029.56552,143.950291 L3041.19402,164.294778 L2928.60219,361.321837 L2816.01777,164.307148 L2827.6438,143.965136 L2928.58734,320.608124 L2928.58734,320.657605 L2928.60219,320.632865 L2928.61703,320.657605 L2928.61703,320.608124 Z M2634.53311,320.608124 L2735.4816,143.950291 L2747.1101,164.294778 L2634.51579,361.321837 L2521.93138,164.3022 L2533.5574,143.962662 L2634.50342,320.608124 L2634.50342,320.657605 L2634.51579,320.632865 L2634.53311,320.657605 L2634.53311,320.608124 Z M2340.44177,320.608124 L2441.39274,143.950291 L2453.01876,164.294778 L2340.42693,361.321837 L2227.84252,164.307148 L2239.46854,143.965136 L2340.41208,320.608124 L2340.41208,320.657605 L2340.42693,320.632865 L2340.44177,320.657605 L2340.44177,320.608124 Z M2046.35785,320.608124 L2147.30882,143.950291 L2158.93484,164.294778 L2046.34053,361.321837 L1933.76107,164.31457 L1945.38956,143.970084 L2046.32817,320.608124 L2046.32817,320.657605 L2046.34053,320.632865 L2046.35785,320.657605 L2046.35785,320.608124 Z M1752.27888,320.608124 L1853.22985,143.950291 L1864.85587,164.294778 L1752.26651,361.321837 L1639.67962,164.307148 L1651.30812,143.965136 L1752.25167,320.608124 L1752.25167,320.657605 L1752.26651,320.632865 L1752.27888,320.657605 L1752.27888,320.608124 Z M1458.19496,320.608124 L1559.14593,143.950291 L1570.77195,164.294778 L1458.18012,361.321837 L1345.59323,164.3022 L1357.22173,143.962662 L1458.16527,320.608124 L1458.16527,320.657605 L1458.18012,320.632865 L1458.19496,320.657605 L1458.19496,320.608124 Z M1164.10362,320.608124 L1265.05459,143.950291 L1276.68308,164.294778 L1164.09125,361.321837 L1051.50684,164.307148 L1063.13286,143.965136 L1164.07641,320.608124 L1164.07641,320.657605 L1164.09125,320.632865 L1164.10362,320.657605 L1164.10362,320.608124 Z M575.915991,320.608124 L676.869434,143.950291 L688.495455,164.294778 L575.903623,361.321837 L463.319211,164.307148 L474.945233,143.965136 L575.888781,320.608124 L575.888781,320.657605 L575.903623,320.632865 L575.915991,320.657605 L575.915991,320.608124 Z M281.832072,320.608124 L382.783041,143.950291 L394.409062,164.294778 L281.81723,361.321837 L169.230345,164.3022 L180.85884,143.962662 L281.802388,320.608124 L281.802388,320.657605 L281.81723,320.632865 L281.832072,320.657605 L281.832072,320.608124 Z M3075.65899,224.571163 L3096.07379,260.287204 L3075.6293,296.060149 L3055.20956,260.329264 L3075.64415,224.573637 L3075.65157,224.58106 L3075.65899,224.571163 Z M722.95795,224.571163 L743.372749,260.287204 L722.933214,296.060149 L702.510995,260.329264 L722.948056,224.573637 L722.953003,224.58106 L722.95795,224.571163 Z M3643.39718,260.329264 L3663.83425,224.573637 L3663.83919,224.58106 L3663.83919,224.578586 L3684.25399,260.299575 L3663.81693,296.060149 L3643.39718,260.329264 Z M2467.0343,260.329264 L2487.47136,224.573637 L2487.47631,224.58106 L2507.89111,260.299575 L2487.45404,296.060149 L2467.0343,260.329264 Z M1290.69862,260.329264 L1311.13568,224.573637 L1311.13816,224.58106 L1311.13816,224.578586 L1331.55543,260.299575 L1311.11837,296.060149 L1290.69862,260.329264 Z M114.335735,260.329264 L134.772797,224.573637 L134.780218,224.58106 L155.195016,260.299575 L134.757955,296.060149 L114.335735,260.329264 Z M3937.48852,260.329264 L3957.92311,224.573637 L3978.34286,260.302049 L3957.90827,296.060149 L3937.48852,260.329264 Z M3349.31327,260.329264 L3369.74785,224.573637 L3390.1676,260.302049 L3369.73301,296.060149 L3349.31327,260.329264 Z M2761.12316,260.329264 L2781.55775,224.573637 L2801.9775,260.302049 L2781.54538,296.060149 L2761.12316,260.329264 Z M2172.95038,260.329264 L2193.38497,224.573637 L2213.80471,260.302049 L2193.37013,296.060149 L2172.95038,260.329264 Z M1584.78749,260.329264 L1605.22455,224.573637 L1625.64182,260.302049 L1605.20723,296.060149 L1584.78749,260.329264 Z M996.612229,260.329264 L1017.04682,224.573637 L1037.46656,260.302049 L1017.03445,296.060149 L996.612229,260.329264 Z M408.427075,260.329264 L428.861663,224.573637 L449.281409,260.302049 L428.846821,296.060149 L408.427075,260.329264 Z M1878.87388,260.329264 L1899.30352,224.583534 L1919.72327,260.309471 L1899.29115,296.060149 L1878.87388,260.329264 Z M3075.64415,335.97473 L3107.4846,280.258102 L3119.1131,300.59764 L3075.6293,376.688444 L3032.17025,300.637226 L3043.79627,280.295214 L3075.61694,335.97473 L3075.61694,336.024212 L3075.6293,335.999471 L3075.64415,336.024212 L3075.64415,335.97473 Z M722.945582,335.97473 L754.788512,280.258102 L766.414534,300.59764 L722.933214,376.688444 L679.471683,300.637226 L691.097705,280.295214 L722.915899,335.97473 L722.915899,336.024212 L722.933214,335.999471 L722.945582,336.024212 L722.945582,335.97473 Z M3663.83177,335.97473 L3695.66728,280.265524 L3707.29578,300.607537 L3663.81693,376.688444 L3620.35787,300.637226 L3631.98389,280.295214 L3663.80209,335.97473 L3663.80209,336.024212 L3663.81693,335.999471 L3663.83177,336.024212 L3663.83177,335.97473 Z M2487.46889,335.97473 L2519.3044,280.265524 L2530.93042,300.607537 L2487.45404,376.688444 L2443.99499,300.637226 L2455.62348,280.295214 L2487.44168,335.97473 L2487.44168,336.024212 L2487.45404,335.999471 L2487.46889,336.024212 L2487.46889,335.97473 Z M1311.13321,335.97473 L1342.96872,280.265524 L1354.59474,300.607537 L1311.11837,376.688444 L1267.65684,300.637226 L1279.28533,280.295214 L1311.106,335.97473 L1311.106,336.024212 L1311.11837,335.999471 L1311.13321,336.024212 L1311.13321,335.97473 Z M134.770323,335.97473 L166.605832,280.265524 L178.234327,300.610011 L134.757955,376.688444 L91.2964243,300.637226 L102.922446,280.295214 L134.74064,335.97473 L134.74064,336.024212 L134.757955,335.999471 L134.770323,336.024212 L134.770323,335.97473 Z M3957.92064,335.97473 L3989.75615,280.270473 L4001.38217,300.612485 L3957.90827,376.688444 L3914.44921,300.637226 L3926.07523,280.295214 L3957.89343,335.97473 L3957.89343,336.024212 L3957.90827,335.999471 L3957.92064,336.024212 L3957.92064,335.97473 Z M3369.74538,335.97473 L3401.57842,280.270473 L3413.20691,300.612485 L3369.73301,376.688444 L3326.27395,300.637226 L3337.8975,280.295214 L3369.71817,335.97473 L3369.71817,336.024212 L3369.73301,335.999471 L3369.74538,336.024212 L3369.74538,335.97473 Z M2781.55775,335.97473 L2813.39326,280.270473 L2825.01928,300.612485 L2781.54538,376.688444 L2738.08385,300.637226 L2749.71235,280.295214 L2781.53054,335.97473 L2781.53054,336.024212 L2781.54538,335.999471 L2781.55775,336.024212 L2781.55775,335.97473 Z M2193.38249,335.97473 L2225.218,280.270473 L2236.84402,300.612485 L2193.37013,376.688444 L2149.91107,300.637226 L2161.53709,280.295214 L2193.35776,335.97473 L2193.35776,336.024212 L2193.37013,335.999471 L2193.38249,336.024212 L2193.38249,335.97473 Z M1605.22208,335.97473 L1637.05511,280.270473 L1648.68113,300.612485 L1605.20723,376.688444 L1561.74818,300.637226 L1573.3742,280.295214 L1605.19487,335.97473 L1605.19487,336.024212 L1605.20723,335.999471 L1605.22208,336.024212 L1605.22208,335.97473 Z M1017.04682,335.97473 L1048.88233,280.270473 L1060.50835,300.612485 L1017.03445,376.688444 L973.572918,300.637226 L985.201413,280.295214 L1017.01961,335.97473 L1017.01961,336.024212 L1017.03445,335.999471 L1017.04682,336.024212 L1017.04682,335.97473 Z M428.861663,335.97473 L460.694699,280.270473 L472.32072,300.612485 L428.846821,376.688444 L385.387764,300.637226 L397.011312,280.295214 L428.83198,335.97473 L428.83198,336.024212 L428.846821,335.999471 L428.861663,336.024212 L428.861663,335.97473 Z M1899.30847,335.97473 L1931.13656,280.277895 L1942.76505,300.619907 L1899.29115,376.688444 L1855.83457,300.637226 L1867.46059,280.295214 L1899.27879,335.97473 L1899.27879,336.024212 L1899.29115,335.999471 L1899.30847,336.024212 L1899.30847,335.97473 Z M3723.30753,0 L3663.83919,104.062926 L3604.37086,0 L3581.54922,0 L3663.82435,143.97998 L3663.82435,144.029462 L3663.83919,144.004721 L3663.85156,144.029462 L3663.85156,143.97998 L3746.12916,0 L3723.30753,0 Z M3677.23138,0 L3663.83919,23.4371055 L3650.44701,0 L3627.6229,0 L3663.82435,63.3492121 L3663.82435,63.4011681 L3663.83919,63.3739531 L3663.85156,63.4011681 L3663.85156,63.3492121 L3700.05549,0 L3677.23138,0 Z M3429.22114,0 L3369.75527,104.062926 L3310.28694,0 L3287.46283,0 L3369.74043,143.97998 L3369.74043,144.029462 L3369.75527,144.004721 L3369.76764,144.029462 L3369.76764,143.97998 L3452.04524,0 L3429.22114,0 Z M3383.14746,0 L3369.75527,23.4371055 L3356.36061,0 L3333.53898,0 L3369.74043,63.3492121 L3369.74043,63.4011681 L3369.75527,63.3739531 L3369.76764,63.4011681 L3369.76764,63.3492121 L3405.96909,0 L3383.14746,0 Z M3135.1199,0 L3075.65157,104.062926 L3016.18323,0 L2993.3616,0 L3075.6392,143.97998 L3075.6392,144.029462 L3075.65157,144.004721 L3075.66641,144.029462 L3075.66641,143.97998 L3157.94401,0 L3135.1199,0 Z M3089.04375,0 L3075.65157,23.4371055 L3062.25938,0 L3039.43775,0 L3075.6392,63.3492121 L3075.6392,63.4011681 L3075.65157,63.3739531 L3075.66641,63.4011681 L3075.66641,63.3492121 L3111.86539,0 L3089.04375,0 Z M2841.03598,0 L2781.56765,104.062926 L2722.09931,0 L2699.2752,0 L2781.55281,143.97998 L2781.55281,144.029462 L2781.56765,144.004721 L2781.58001,144.029462 L2781.58001,143.97998 L2863.85761,0 L2841.03598,0 Z M2794.95983,0 L2781.56765,23.4371055 L2768.17546,0 L2745.35135,0 L2781.55281,63.3492121 L2781.55281,63.4011681 L2781.56765,63.3739531 L2781.58001,63.4011681 L2781.58001,63.3492121 L2817.78147,0 L2794.95983,0 Z M2546.94464,0 L2487.47631,104.062926 L2428.01044,0 L2405.18634,0 L2487.46394,143.97998 L2487.46394,144.029462 L2487.47631,144.004721 L2487.48867,144.029462 L2487.48867,143.97998 L2569.76875,0 L2546.94464,0 Z M2500.86849,0 L2487.47631,23.4371055 L2474.08412,0 L2451.26249,0 L2487.46394,63.3492121 L2487.46394,63.4011681 L2487.47631,63.3739531 L2487.48867,63.4011681 L2487.48867,63.3492121 L2523.6926,0 L2500.86849,0 Z M2252.86072,0 L2193.39239,104.062926 L2133.92405,0 L2111.09995,0 L2193.37755,143.97998 L2193.37755,144.029462 L2193.39239,144.004721 L2193.40476,144.029462 L2193.40476,143.97998 L2275.68236,0 L2252.86072,0 Z M2206.78457,0 L2193.39239,23.4371055 L2180.0002,0 L2157.17609,0 L2193.37755,63.3492121 L2193.37755,63.4011681 L2193.39239,63.3739531 L2193.40476,63.4011681 L2193.40476,63.3492121 L2229.60621,0 L2206.78457,0 Z M1958.78423,0 L1899.31342,104.062926 L1839.84755,0 L1817.02345,0 L1899.30105,143.97998 L1899.30105,144.029462 L1899.31342,144.004721 L1899.33073,144.029462 L1899.33073,143.97998 L1981.60586,0 L1958.78423,0 Z M1912.70808,0 L1899.31342,23.4371055 L1885.92123,0 L1863.0996,0 L1899.30105,63.3492121 L1899.30105,63.4011681 L1899.31342,63.3739531 L1899.33073,63.4011681 L1899.33073,63.3492121 L1935.52971,0 L1912.70808,0 Z M1664.69783,0 L1605.2295,104.062926 L1545.76116,0 L1522.93953,0 L1605.21713,143.97998 L1605.21713,144.029462 L1605.2295,144.004721 L1605.24434,144.029462 L1605.24434,143.97998 L1687.52194,0 L1664.69783,0 Z M1618.62168,0 L1605.2295,23.4371055 L1591.83731,0 L1569.01568,0 L1605.21713,63.3492121 L1605.21713,63.4011681 L1605.2295,63.3739531 L1605.24434,63.4011681 L1605.24434,63.3492121 L1641.44332,0 L1618.62168,0 Z M1370.60649,0 L1311.13816,104.062926 L1251.67229,0 L1228.84819,0 L1311.12579,143.97998 L1311.12579,144.029462 L1311.13816,144.004721 L1311.15547,144.029462 L1311.15547,143.97998 L1393.4306,0 L1370.60649,0 Z M1324.53034,0 L1311.13816,23.4371055 L1297.74597,0 L1274.92434,0 L1311.12579,63.3492121 L1311.12579,63.4011681 L1311.13816,63.3739531 L1311.15547,63.4011681 L1311.15547,63.3492121 L1347.35692,0 L1324.53034,0 Z M1076.52257,0 L1017.05424,104.062926 L957.588375,0 L934.764269,0 L1017.04187,143.97998 L1017.04187,144.029462 L1017.05424,144.004721 L1017.06908,144.029462 L1017.06908,143.97998 L1099.34668,0 L1076.52257,0 Z M1030.44642,0 L1017.05424,23.4371055 L1003.66205,0 L980.840418,0 L1017.04187,63.3492121 L1017.04187,63.4011681 L1017.05424,63.3739531 L1017.06908,63.4011681 L1017.06908,63.3492121 L1053.27053,0 L1030.44642,0 Z M782.421339,0 L722.953003,104.062926 L663.484667,0 L640.663035,0 L722.938161,143.97998 L722.938161,144.029462 L722.953003,144.004721 L722.965371,144.029462 L722.965371,143.97998 L805.242971,0 L782.421339,0 Z M736.34519,0 L722.953003,23.4371055 L709.560816,0 L686.73671,0 L722.938161,63.3492121 L722.938161,63.4011681 L722.953003,63.3739531 L722.965371,63.4011681 L722.965371,63.3492121 L759.166823,0 L736.34519,0 Z M488.334946,0 L428.86661,104.062926 L369.400748,0 L346.576642,0 L428.854242,143.97998 L428.854242,144.029462 L428.86661,144.004721 L428.881452,144.029462 L428.881452,143.97998 L511.159052,0 L488.334946,0 Z M442.261271,0 L428.86661,23.4371055 L415.474423,0 L392.652791,0 L428.854242,63.3492121 L428.854242,63.4011681 L428.86661,63.3739531 L428.881452,63.4011681 L428.881452,63.3492121 L465.082903,0 L442.261271,0 Z M194.24608,0 L134.780218,104.062926 L75.3118818,0 L52.4877757,0 L134.762902,143.97998 L134.762902,144.029462 L134.780218,144.004721 L134.792586,144.029462 L134.792586,143.97998 L217.070186,0 L194.24608,0 Z M148.172405,0 L134.780218,23.4371055 L121.385557,0 L98.5614508,0 L134.762902,63.3492121 L134.762902,63.4011681 L134.780218,63.3739531 L134.792586,63.4011681 L134.792586,63.3492121 L170.994037,0 L148.172405,0 Z M4029.6334,412.431699 L4033,412.431699 L4033,406.540878 L4029.6334,412.431699 Z" id="Fill-2" fill="#F498B0"></path>
        </g>
    </g>
</svg>