<svg xmlns="http://www.w3.org/2000/svg" class="c-symbolset">
    <symbol id="c-symbol-cross" viewBox="0 0 20 20">
      <title>cross</title><g fill-rule="evenodd"><path d="M16.364 5.05L5.05 16.364 3.636 14.95 14.95 3.636z"/><path d="M5.05 3.636L16.364 14.95l-1.414 1.414L3.636 5.05z"/></g>
    </symbol>
    <symbol id="c-symbol-deezer" viewBox="0 0 20 20">
      <title>deezer</title><g fill-rule="evenodd"><path d="M1.5 10h3v1h-3zM1.5 11.5h3v1h-3zM1.5 13h3v1h-3zM1.5 14.5h3v1h-3zM1.5 16h3v1h-3zM5 11.5h3v1H5zM8.5 11.5h3v1h-3zM8.5 13h3v1h-3zM8.5 14.5h3v1h-3zM8.5 16h3v1h-3zM8.5 10h3v1h-3zM5 13h3v1H5zM5 14.5h3v1H5zM5 16h3v1H5zM8.5 8.5h3v1h-3zM8.5 7h3v1h-3zM8.5 5.5h3v1h-3zM12 8.5h3v1h-3zM12 10h3v1h-3zM12 11.5h3v1h-3zM12 13h3v1h-3zM12 14.5h3v1h-3zM12 16h3v1h-3zM15.5 8.5h3v1h-3zM15.5 7h3v1h-3zM15.5 5.5h3v1h-3zM15.5 4h3v1h-3zM15.5 2.5h3v1h-3zM15.5 10h3v1h-3zM15.5 11.5h3v1h-3zM15.5 13h3v1h-3zM15.5 14.5h3v1h-3zM15.5 16h3v1h-3z"/></g>
    </symbol>
    <symbol id="c-symbol-facebook-alt" viewBox="0 0 20 20">
      <title>facebook-alt</title><path d="M14.154 2.115v2.539h-1.51c-1.182 0-1.404.567-1.404 1.384v1.818h2.818l-.375 2.846H11.24V18H8.298v-7.298H5.846V7.856h2.452V5.76c0-2.433 1.49-3.76 3.664-3.76 1.038 0 1.932.077 2.192.115z" fill-rule="nonzero"/>
    </symbol>
    <symbol id="c-symbol-facebook" viewBox="0 0 20 20">
      <title>facebook</title><path d="M14.154 2.115v2.539h-1.51c-1.182 0-1.404.567-1.404 1.384v1.818h2.818l-.375 2.846H11.24V18H8.298v-7.298H5.846V7.856h2.452V5.76c0-2.433 1.49-3.76 3.664-3.76 1.038 0 1.932.077 2.192.115z" fill-rule="nonzero"/>
    </symbol>
    <symbol id="c-symbol-hamburger" viewBox="0 0 20 20">
      <title>hamburger</title><g fill-rule="evenodd"><path d="M2 3h16v2H2zM2 9h16v2H2zM2 15h16v2H2z"/></g>
    </symbol>
    <symbol id="c-symbol-instagram" viewBox="0 0 20 20">
      <title>instagram</title><path d="M12.666 10A2.672 2.672 0 0 0 10 7.334 2.672 2.672 0 0 0 7.334 10 2.672 2.672 0 0 0 10 12.666 2.672 2.672 0 0 0 12.666 10zm1.438 0A4.099 4.099 0 0 1 10 14.104 4.099 4.099 0 0 1 5.896 10 4.099 4.099 0 0 1 10 5.896 4.099 4.099 0 0 1 14.104 10zm1.125-4.27a.956.956 0 0 1-.959.958.956.956 0 0 1-.958-.958c0-.532.427-.959.958-.959.532 0 .959.427.959.959zM10 3.438c-1.167 0-3.666-.094-4.718.323a2.558 2.558 0 0 0-.917.604 2.558 2.558 0 0 0-.604.917C3.344 6.334 3.438 8.833 3.438 10c0 1.167-.094 3.666.323 4.718.146.365.323.636.604.917.281.281.552.458.917.604 1.052.417 3.551.323 4.718.323 1.167 0 3.666.094 4.718-.323.365-.146.636-.323.917-.604.281-.281.458-.552.604-.917.417-1.052.323-3.551.323-4.718 0-1.167.094-3.666-.323-4.718a2.558 2.558 0 0 0-.604-.917 2.558 2.558 0 0 0-.917-.604c-1.052-.417-3.551-.323-4.718-.323zM18 10c0 1.104.01 2.198-.053 3.302-.062 1.281-.354 2.416-1.291 3.354-.938.937-2.073 1.229-3.354 1.291C12.198 18.01 11.104 18 10 18s-2.198.01-3.302-.052c-1.281-.062-2.416-.354-3.354-1.291-.937-.938-1.229-2.073-1.291-3.354C1.99 12.198 2 11.104 2 10s-.01-2.198.052-3.302c.062-1.281.354-2.416 1.291-3.354.938-.937 2.073-1.229 3.354-1.291C7.802 1.99 8.896 2 10 2s2.198-.01 3.302.052c1.281.062 2.416.354 3.354 1.291.937.938 1.229 2.073 1.291 3.354C18.01 7.802 18 8.896 18 10z" fill-rule="nonzero"/>
    </symbol>
    <symbol id="c-symbol-play" viewBox="0 0 20 20">
      <title>play</title><path d="M4 2l12 8-12 8z" fill-rule="evenodd"/>
    </symbol>
    <symbol id="c-symbol-plus" viewBox="0 0 20 20">
      <title>plus</title><g fill-rule="evenodd"><path d="M11 4v12H9V4z"/><path d="M4 9h12v2H4z"/></g>
    </symbol>
    <symbol id="c-symbol-right" viewBox="0 0 44 44">
      <title>right</title><path d="M16.514 6.557l-3.641 3.642L24.672 22l-11.8 11.801 3.641 3.642L31.958 22z" fill-rule="evenodd"/>
    </symbol>
    <symbol id="c-symbol-search" viewBox="0 0 20 20">
      <title>search</title><path d="M13.749 12.335l4.433 4.433-1.414 1.414-4.433-4.433a6.5 6.5 0 1 1 1.414-1.414zM8.5 13a4.5 4.5 0 1 0 0-9 4.5 4.5 0 0 0 0 9z" fill-rule="nonzero"/>
    </symbol>
    <symbol id="c-symbol-slideshow" viewBox="0 0 20 20">
      <title>slideshow</title><g fill-rule="nonzero"><path d="M2.023 8.023v9.954h9.954V8.023H2.023zM1 7h12v12H1V7z"/><path d="M5.023 5.023V7H13v7.977h1.977V5.023H5.023zM4 4h12v12h-3l-1.023-7.977L4 7V4z"/><path d="M8.023 2.023V4H16v7.977h1.977V2.023H8.023zM7 1h12v12h-3l-1.023-7.977L7 4V1z"/></g>
    </symbol>
    <symbol id="c-symbol-spotify" viewBox="0 0 20 20">
      <title>spotify</title><path d="M13.74 13.27c0-.29-.115-.405-.313-.53-1.344-.803-2.906-1.198-4.656-1.198-1.021 0-2 .135-2.99.354-.24.052-.437.208-.437.541 0 .26.198.51.51.51.094 0 .26-.051.386-.082a12.645 12.645 0 0 1 2.53-.282c1.532 0 2.98.375 4.136 1.073.125.073.209.115.344.115.26 0 .49-.209.49-.5zm1-2.239c0-.281-.105-.479-.365-.635-1.594-.948-3.615-1.469-5.708-1.469-1.344 0-2.26.188-3.157.438-.333.093-.5.322-.5.666 0 .344.282.625.625.625.146 0 .23-.041.386-.083a9.946 9.946 0 0 1 2.614-.344c1.98 0 3.782.521 5.084 1.292.114.062.229.135.396.135a.62.62 0 0 0 .625-.625zm1.125-2.583c0-.386-.167-.583-.417-.73-1.802-1.051-4.27-1.54-6.625-1.54-1.386 0-2.656.155-3.792.489a.762.762 0 0 0-.562.77c0 .428.323.76.75.76.156 0 .302-.051.416-.082 1.01-.282 2.105-.386 3.198-.386 2.167 0 4.417.48 5.865 1.344.146.083.25.125.417.125.395 0 .75-.313.75-.75zM18 10c0 4.417-3.583 8-8 8s-8-3.583-8-8 3.583-8 8-8 8 3.583 8 8z" fill-rule="nonzero"/>
    </symbol>
    <symbol id="c-symbol-twitter" viewBox="0 0 20 20">
      <title>twitter</title><path d="M19.85 3.9a8.68 8.68 0 0 1-2.025 2.087c.012.175.012.35.012.526C17.837 11.85 13.775 18 6.35 18a11.41 11.41 0 0 1-6.2-1.813c.325.038.637.05.975.05a8.086 8.086 0 0 0 5.013-1.724 4.045 4.045 0 0 1-3.776-2.8c.25.037.5.062.763.062.362 0 .725-.05 1.063-.138A4.038 4.038 0 0 1 .95 7.675v-.05c.538.3 1.162.488 1.825.512a4.035 4.035 0 0 1-1.8-3.362c0-.75.2-1.438.55-2.038A11.476 11.476 0 0 0 9.85 6.963c-.063-.3-.1-.613-.1-.926C9.75 3.813 11.55 2 13.787 2c1.163 0 2.213.487 2.95 1.275A7.948 7.948 0 0 0 19.3 2.3a4.027 4.027 0 0 1-1.775 2.225A8.095 8.095 0 0 0 19.85 3.9z" fill-rule="nonzero"/>
    </symbol>
    <symbol id="c-symbol-youtube" viewBox="0 0 20 20">
      <title>youtube</title><path d="M11.813 13.107v1.884c0 .402-.117.598-.349.598-.134 0-.268-.062-.402-.196v-2.688c.134-.134.268-.196.402-.196.232 0 .348.205.348.598zm3.017.01v.41h-.803v-.41c0-.403.134-.608.402-.608.267 0 .401.205.401.607zM6.205 11.17h.956v-.84H4.375v.84h.938v5.08h.892v-5.08zm2.572 5.08h.794v-4.41h-.794v3.374c-.179.25-.348.375-.51.375-.106 0-.169-.062-.187-.187-.009-.027-.009-.125-.009-.313v-3.25h-.794v3.491c0 .313.027.518.071.652.072.223.26.33.518.33.286 0 .59-.178.91-.544v.482zm3.83-1.321v-1.76c0-.41-.018-.705-.08-.883-.098-.33-.322-.5-.634-.5-.295 0-.572.16-.83.482V10.33h-.795v5.92h.794v-.429c.268.33.545.492.83.492.313 0 .537-.17.635-.492.062-.187.08-.482.08-.892zm3.018-.09v-.116h-.813c0 .322-.008.5-.017.545-.045.214-.161.321-.357.321-.277 0-.411-.205-.411-.616v-.777h1.598v-.92c0-.472-.08-.812-.241-1.035-.232-.303-.545-.455-.947-.455-.41 0-.723.152-.955.455-.17.223-.25.563-.25 1.036v1.544c0 .474.09.822.26 1.036.231.304.544.456.963.456.42 0 .75-.161.965-.474.098-.143.17-.303.187-.482.018-.08.018-.259.018-.518zm-5.429-8.152V4.813c0-.41-.116-.616-.383-.616-.26 0-.384.206-.384.617v1.875c0 .41.125.625.383.625.268 0 .384-.215.384-.625zm6.42 6.706c0 1.027-.009 2.125-.232 3.125-.17.705-.741 1.223-1.429 1.294C13.312 18 11.652 18 10 18c-1.652 0-3.313 0-4.955-.188a1.659 1.659 0 0 1-1.429-1.294c-.232-1-.232-2.098-.232-3.125 0-1.036.009-2.125.232-3.125.17-.706.741-1.223 1.438-1.304 1.633-.178 3.294-.178 4.946-.178 1.652 0 3.313 0 4.955.178a1.68 1.68 0 0 1 1.429 1.304c.232 1 .232 2.09.232 3.125zM7.706 2h.91l-1.08 3.563v2.42h-.893v-2.42c-.08-.438-.26-1.063-.545-1.893-.196-.554-.393-1.116-.58-1.67h.946l.634 2.348L7.705 2zm3.303 2.973v1.563c0 .473-.08.83-.25 1.053-.223.304-.536.456-.947.456-.401 0-.714-.152-.937-.456-.17-.232-.25-.58-.25-1.053V4.973c0-.473.08-.821.25-1.044.223-.304.536-.456.938-.456.41 0 .723.152.946.456.17.223.25.571.25 1.044zM14 3.527v4.455h-.813v-.49c-.32.374-.624.553-.92.553-.258 0-.446-.107-.526-.33-.045-.135-.071-.349-.071-.67V3.527h.812v3.277c0 .187 0 .294.01.312.017.125.08.197.187.197.16 0 .33-.125.508-.384V3.527H14z" fill-rule="nonzero"/>
    </symbol></svg>