<?xml version="1.0" encoding="UTF-8"?>
<svg width="400px" height="400px" viewBox="0 0 400 400" version="1.1" xmlns="http://www.w3.org/2000/svg" xmlns:xlink="http://www.w3.org/1999/xlink">
    <!-- Generator: Sketch 51.2 (57519) - http://www.bohemiancoding.com/sketch -->
    <title>visual-1</title>
    <desc>Created with Sketch.</desc>
    <defs></defs>
    <g id="visual-1" stroke="none" stroke-width="1" fill="none" fill-rule="evenodd">
        <g id="Group-8" transform="translate(-12.000000, -18.000000)">
            <polygon id="Fill-1" fill="#FEFEFE" points="0 436.028747 423 436.028747 423 0 0 0"></polygon>
            <polygon id="Fill-2" fill="#231F20" points="317.032854 0 423 185.008214 423 95.2386209 368.45102 0"></polygon>
            <polygon id="Fill-3" fill="#231F20" points="212.802875 0 422.131417 366.542094 422.131417 276.696123 264.113154 0"></polygon>
            <polygon id="Fill-4" fill="#231F20" points="109.441478 0 358.624729 436.028747 409.971253 436.028747 160.788002 0"></polygon>
            <polygon id="Fill-5" fill="#231F20" points="5.21149897 0 254.394749 436.028747 305.741273 436.028747 56.5580228 0"></polygon>
            <polygon id="Fill-6" fill="#231F20" points="0 171.453734 151.741422 436.028747 203.24846 436.028747 0 81.6468172"></polygon>
            <polygon id="Fill-7" fill="#231F20" points="0 352.864288 47.6421026 436.028747 99.0184805 436.028747 0 263.180698"></polygon>
        </g>
    </g>
</svg>